<?xml version="1.0" encoding="utf-8" standalone="no"?>
<!DOCTYPE svg PUBLIC "-//W3C//DTD SVG 1.1//EN"
  "http://www.w3.org/Graphics/SVG/1.1/DTD/svg11.dtd">
<svg height="288pt" version="1.1" viewBox="0 0 432 288" width="432pt" xmlns="http://www.w3.org/2000/svg" xmlns:xlink="http://www.w3.org/1999/xlink">
 <metadata>
  <rdf:RDF xmlns:cc="http://creativecommons.org/ns#" xmlns:dc="http://purl.org/dc/elements/1.1/" xmlns:rdf="http://www.w3.org/1999/02/22-rdf-syntax-ns#">
   <cc:Work>
    <dc:type rdf:resource="http://purl.org/dc/dcmitype/StillImage"/>
    <dc:date>2021-06-10T03:08:00.586034</dc:date>
    <dc:format>image/svg+xml</dc:format>
    <dc:creator>
     <cc:Agent>
      <dc:title>Matplotlib v3.4.1, https://matplotlib.org/</dc:title>
     </cc:Agent>
    </dc:creator>
   </cc:Work>
  </rdf:RDF>
 </metadata>
 <defs>
  <style type="text/css">*{stroke-linecap:butt;stroke-linejoin:round;}</style>
 </defs>
 <g id="figure_1">
  <g id="patch_1">
   <path d="M 0 288 
L 432 288 
L 432 0 
L 0 0 
z
" style="fill:none;"/>
  </g>
  <g id="axes_1">
   <g id="patch_2">
    <path d="M 54 252 
L 388.8 252 
L 388.8 34.56 
L 54 34.56 
z
" style="fill:#ffffff;"/>
   </g>
   <g id="matplotlib.axis_1">
    <g id="xtick_1">
     <g id="line2d_1">
      <defs>
       <path d="M 0 0 
L 0 3.5 
" id="mfb163a0c87" style="stroke:#000000;stroke-width:0.8;"/>
      </defs>
      <g>
       <use style="stroke:#000000;stroke-width:0.8;" x="69.218182" xlink:href="#mfb163a0c87" y="252"/>
      </g>
     </g>
     <g id="text_1">
      <!-- 0 -->
      <g transform="translate(66.036932 266.598437)scale(0.1 -0.1)">
       <defs>
        <path d="M 2034 4250 
Q 1547 4250 1301 3770 
Q 1056 3291 1056 2328 
Q 1056 1369 1301 889 
Q 1547 409 2034 409 
Q 2525 409 2770 889 
Q 3016 1369 3016 2328 
Q 3016 3291 2770 3770 
Q 2525 4250 2034 4250 
z
M 2034 4750 
Q 2819 4750 3233 4129 
Q 3647 3509 3647 2328 
Q 3647 1150 3233 529 
Q 2819 -91 2034 -91 
Q 1250 -91 836 529 
Q 422 1150 422 2328 
Q 422 3509 836 4129 
Q 1250 4750 2034 4750 
z
" id="DejaVuSans-30" transform="scale(0.015625)"/>
       </defs>
       <use xlink:href="#DejaVuSans-30"/>
      </g>
     </g>
    </g>
    <g id="xtick_2">
     <g id="line2d_2">
      <g>
       <use style="stroke:#000000;stroke-width:0.8;" x="130.151843" xlink:href="#mfb163a0c87" y="252"/>
      </g>
     </g>
     <g id="text_2">
      <!-- 2 -->
      <g transform="translate(126.970593 266.598437)scale(0.1 -0.1)">
       <defs>
        <path d="M 1228 531 
L 3431 531 
L 3431 0 
L 469 0 
L 469 531 
Q 828 903 1448 1529 
Q 2069 2156 2228 2338 
Q 2531 2678 2651 2914 
Q 2772 3150 2772 3378 
Q 2772 3750 2511 3984 
Q 2250 4219 1831 4219 
Q 1534 4219 1204 4116 
Q 875 4013 500 3803 
L 500 4441 
Q 881 4594 1212 4672 
Q 1544 4750 1819 4750 
Q 2544 4750 2975 4387 
Q 3406 4025 3406 3419 
Q 3406 3131 3298 2873 
Q 3191 2616 2906 2266 
Q 2828 2175 2409 1742 
Q 1991 1309 1228 531 
z
" id="DejaVuSans-32" transform="scale(0.015625)"/>
       </defs>
       <use xlink:href="#DejaVuSans-32"/>
      </g>
     </g>
    </g>
    <g id="xtick_3">
     <g id="line2d_3">
      <g>
       <use style="stroke:#000000;stroke-width:0.8;" x="191.085504" xlink:href="#mfb163a0c87" y="252"/>
      </g>
     </g>
     <g id="text_3">
      <!-- 4 -->
      <g transform="translate(187.904254 266.598437)scale(0.1 -0.1)">
       <defs>
        <path d="M 2419 4116 
L 825 1625 
L 2419 1625 
L 2419 4116 
z
M 2253 4666 
L 3047 4666 
L 3047 1625 
L 3713 1625 
L 3713 1100 
L 3047 1100 
L 3047 0 
L 2419 0 
L 2419 1100 
L 313 1100 
L 313 1709 
L 2253 4666 
z
" id="DejaVuSans-34" transform="scale(0.015625)"/>
       </defs>
       <use xlink:href="#DejaVuSans-34"/>
      </g>
     </g>
    </g>
    <g id="xtick_4">
     <g id="line2d_4">
      <g>
       <use style="stroke:#000000;stroke-width:0.8;" x="252.019165" xlink:href="#mfb163a0c87" y="252"/>
      </g>
     </g>
     <g id="text_4">
      <!-- 6 -->
      <g transform="translate(248.837915 266.598437)scale(0.1 -0.1)">
       <defs>
        <path d="M 2113 2584 
Q 1688 2584 1439 2293 
Q 1191 2003 1191 1497 
Q 1191 994 1439 701 
Q 1688 409 2113 409 
Q 2538 409 2786 701 
Q 3034 994 3034 1497 
Q 3034 2003 2786 2293 
Q 2538 2584 2113 2584 
z
M 3366 4563 
L 3366 3988 
Q 3128 4100 2886 4159 
Q 2644 4219 2406 4219 
Q 1781 4219 1451 3797 
Q 1122 3375 1075 2522 
Q 1259 2794 1537 2939 
Q 1816 3084 2150 3084 
Q 2853 3084 3261 2657 
Q 3669 2231 3669 1497 
Q 3669 778 3244 343 
Q 2819 -91 2113 -91 
Q 1303 -91 875 529 
Q 447 1150 447 2328 
Q 447 3434 972 4092 
Q 1497 4750 2381 4750 
Q 2619 4750 2861 4703 
Q 3103 4656 3366 4563 
z
" id="DejaVuSans-36" transform="scale(0.015625)"/>
       </defs>
       <use xlink:href="#DejaVuSans-36"/>
      </g>
     </g>
    </g>
    <g id="xtick_5">
     <g id="line2d_5">
      <g>
       <use style="stroke:#000000;stroke-width:0.8;" x="312.952826" xlink:href="#mfb163a0c87" y="252"/>
      </g>
     </g>
     <g id="text_5">
      <!-- 8 -->
      <g transform="translate(309.771576 266.598437)scale(0.1 -0.1)">
       <defs>
        <path d="M 2034 2216 
Q 1584 2216 1326 1975 
Q 1069 1734 1069 1313 
Q 1069 891 1326 650 
Q 1584 409 2034 409 
Q 2484 409 2743 651 
Q 3003 894 3003 1313 
Q 3003 1734 2745 1975 
Q 2488 2216 2034 2216 
z
M 1403 2484 
Q 997 2584 770 2862 
Q 544 3141 544 3541 
Q 544 4100 942 4425 
Q 1341 4750 2034 4750 
Q 2731 4750 3128 4425 
Q 3525 4100 3525 3541 
Q 3525 3141 3298 2862 
Q 3072 2584 2669 2484 
Q 3125 2378 3379 2068 
Q 3634 1759 3634 1313 
Q 3634 634 3220 271 
Q 2806 -91 2034 -91 
Q 1263 -91 848 271 
Q 434 634 434 1313 
Q 434 1759 690 2068 
Q 947 2378 1403 2484 
z
M 1172 3481 
Q 1172 3119 1398 2916 
Q 1625 2713 2034 2713 
Q 2441 2713 2670 2916 
Q 2900 3119 2900 3481 
Q 2900 3844 2670 4047 
Q 2441 4250 2034 4250 
Q 1625 4250 1398 4047 
Q 1172 3844 1172 3481 
z
" id="DejaVuSans-38" transform="scale(0.015625)"/>
       </defs>
       <use xlink:href="#DejaVuSans-38"/>
      </g>
     </g>
    </g>
    <g id="xtick_6">
     <g id="line2d_6">
      <g>
       <use style="stroke:#000000;stroke-width:0.8;" x="373.886486" xlink:href="#mfb163a0c87" y="252"/>
      </g>
     </g>
     <g id="text_6">
      <!-- 10 -->
      <g transform="translate(367.523986 266.598437)scale(0.1 -0.1)">
       <defs>
        <path d="M 794 531 
L 1825 531 
L 1825 4091 
L 703 3866 
L 703 4441 
L 1819 4666 
L 2450 4666 
L 2450 531 
L 3481 531 
L 3481 0 
L 794 0 
L 794 531 
z
" id="DejaVuSans-31" transform="scale(0.015625)"/>
       </defs>
       <use xlink:href="#DejaVuSans-31"/>
       <use x="63.623047" xlink:href="#DejaVuSans-30"/>
      </g>
     </g>
    </g>
   </g>
   <g id="matplotlib.axis_2">
    <g id="ytick_1">
     <g id="line2d_7">
      <defs>
       <path d="M 0 0 
L -3.5 0 
" id="mcd646d6240" style="stroke:#000000;stroke-width:0.8;"/>
      </defs>
      <g>
       <use style="stroke:#000000;stroke-width:0.8;" x="54" xlink:href="#mcd646d6240" y="220.092499"/>
      </g>
     </g>
     <g id="text_7">
      <!-- −2 -->
      <g transform="translate(32.257812 223.891717)scale(0.1 -0.1)">
       <defs>
        <path d="M 678 2272 
L 4684 2272 
L 4684 1741 
L 678 1741 
L 678 2272 
z
" id="DejaVuSans-2212" transform="scale(0.015625)"/>
       </defs>
       <use xlink:href="#DejaVuSans-2212"/>
       <use x="83.789062" xlink:href="#DejaVuSans-32"/>
      </g>
     </g>
    </g>
    <g id="ytick_2">
     <g id="line2d_8">
      <g>
       <use style="stroke:#000000;stroke-width:0.8;" x="54" xlink:href="#mcd646d6240" y="179.186416"/>
      </g>
     </g>
     <g id="text_8">
      <!-- −1 -->
      <g transform="translate(32.257812 182.985635)scale(0.1 -0.1)">
       <use xlink:href="#DejaVuSans-2212"/>
       <use x="83.789062" xlink:href="#DejaVuSans-31"/>
      </g>
     </g>
    </g>
    <g id="ytick_3">
     <g id="line2d_9">
      <g>
       <use style="stroke:#000000;stroke-width:0.8;" x="54" xlink:href="#mcd646d6240" y="138.280333"/>
      </g>
     </g>
     <g id="text_9">
      <!-- 0 -->
      <g transform="translate(40.6375 142.079552)scale(0.1 -0.1)">
       <use xlink:href="#DejaVuSans-30"/>
      </g>
     </g>
    </g>
    <g id="ytick_4">
     <g id="line2d_10">
      <g>
       <use style="stroke:#000000;stroke-width:0.8;" x="54" xlink:href="#mcd646d6240" y="97.37425"/>
      </g>
     </g>
     <g id="text_10">
      <!-- 1 -->
      <g transform="translate(40.6375 101.173469)scale(0.1 -0.1)">
       <use xlink:href="#DejaVuSans-31"/>
      </g>
     </g>
    </g>
    <g id="ytick_5">
     <g id="line2d_11">
      <g>
       <use style="stroke:#000000;stroke-width:0.8;" x="54" xlink:href="#mcd646d6240" y="56.468167"/>
      </g>
     </g>
     <g id="text_11">
      <!-- 2 -->
      <g transform="translate(40.6375 60.267386)scale(0.1 -0.1)">
       <use xlink:href="#DejaVuSans-32"/>
      </g>
     </g>
    </g>
   </g>
   <g id="line2d_12">
    <path clip-path="url(#pfa43245412)" d="M 69.218182 118.659148 
L 69.52285 137.096238 
L 69.827518 128.67346 
L 70.132187 132.771173 
L 70.436855 144.604438 
L 70.741523 144.003275 
L 71.046192 108.109203 
L 71.35086 126.373128 
L 71.655528 113.477117 
L 71.960197 125.29836 
L 72.569533 90.398501 
L 72.874201 99.568915 
L 73.17887 73.126876 
L 73.483538 140.337056 
L 73.788206 128.105225 
L 74.092875 62.63983 
L 74.397543 105.144524 
L 74.702211 107.328252 
L 75.00688 90.855374 
L 75.311548 116.081124 
L 75.616216 79.065178 
L 75.920885 120.942837 
L 76.225553 86.692388 
L 76.530221 80.346801 
L 76.834889 106.243399 
L 77.139558 116.441645 
L 77.444226 78.140501 
L 77.748894 126.489627 
L 78.053563 82.683588 
L 78.358231 99.388894 
L 78.662899 107.403869 
L 78.967568 77.939692 
L 79.272236 105.513085 
L 79.576904 106.414225 
L 79.881572 131.073281 
L 80.186241 112.431115 
L 80.490909 116.273842 
L 80.795577 150.930299 
L 81.100246 104.276069 
L 81.404914 89.145876 
L 81.709582 125.275535 
L 82.014251 46.368177 
L 82.318919 105.477089 
L 82.623587 131.675526 
L 82.928256 115.33315 
L 83.232924 131.845115 
L 83.537592 124.003951 
L 83.84226 127.178448 
L 84.146929 142.162957 
L 84.451597 123.678157 
L 84.756265 133.286629 
L 85.060934 157.998161 
L 85.365602 173.630781 
L 85.67027 173.155396 
L 85.974939 185.004261 
L 86.584275 122.83988 
L 86.888943 179.181069 
L 87.193612 181.606656 
L 87.49828 172.142792 
L 87.802948 181.954128 
L 88.107617 168.867781 
L 88.412285 186.266624 
L 88.716953 148.273021 
L 89.021622 192.433367 
L 89.32629 152.072581 
L 89.630958 165.225997 
L 89.935627 193.058644 
L 90.240295 149.946058 
L 90.544963 174.200475 
L 90.849631 185.456824 
L 91.1543 186.387625 
L 91.458968 216.733417 
L 91.763636 189.390169 
L 92.068305 197.975182 
L 92.372973 136.898175 
L 92.677641 172.45682 
L 92.98231 166.134075 
L 93.286978 178.259879 
L 93.591646 201.79359 
L 93.896314 158.710711 
L 94.200983 198.747783 
L 94.505651 203.138515 
L 94.810319 175.277987 
L 95.419656 147.041803 
L 95.724324 174.860497 
L 96.028993 186.332585 
L 96.333661 162.260878 
L 96.638329 213.825702 
L 96.942998 130.029715 
L 97.247666 165.141487 
L 97.552334 173.513309 
L 97.857002 176.858971 
L 98.161671 168.387072 
L 98.466339 138.079437 
L 98.771007 138.731224 
L 99.075676 152.576594 
L 99.380344 126.553612 
L 99.685012 133.810977 
L 99.989681 144.695955 
L 100.294349 145.900826 
L 100.599017 115.834283 
L 100.903686 149.240617 
L 101.208354 135.747985 
L 101.513022 132.386123 
L 101.81769 115.489108 
L 102.122359 168.084461 
L 102.427027 115.776639 
L 102.731695 106.386733 
L 103.036364 132.667358 
L 103.341032 146.580669 
L 103.6457 73.158629 
L 103.950369 111.117797 
L 104.255037 98.914625 
L 104.559705 116.216509 
L 104.864373 102.008135 
L 105.169042 65.558838 
L 105.47371 64.646995 
L 105.778378 109.493603 
L 106.083047 104.049401 
L 106.387715 71.457223 
L 106.692383 103.150801 
L 106.997052 58.958935 
L 107.30172 84.527618 
L 107.606388 94.368786 
L 107.911057 53.221101 
L 108.215725 89.219209 
L 108.520393 105.422085 
L 108.825061 111.17718 
L 109.434398 91.892207 
L 109.739066 100.875571 
L 110.043735 129.690012 
L 110.653071 114.042339 
L 110.95774 133.917718 
L 111.262408 103.114841 
L 111.567076 134.409673 
L 111.871744 125.493206 
L 112.176413 108.270762 
L 112.481081 169.243914 
L 113.090418 110.925382 
L 113.395086 118.196536 
L 113.699754 135.621588 
L 114.004423 93.761695 
L 114.309091 93.505041 
L 114.613759 130.397869 
L 114.918428 153.673077 
L 115.223096 153.411588 
L 115.527764 144.333055 
L 115.832432 171.275565 
L 116.137101 133.083082 
L 116.441769 144.955612 
L 116.746437 185.98126 
L 117.051106 163.604926 
L 117.355774 154.439785 
L 117.660442 183.765516 
L 117.965111 147.682254 
L 118.269779 179.986545 
L 118.574447 147.639235 
L 118.879115 174.074518 
L 119.183784 166.926681 
L 119.488452 163.172417 
L 119.79312 178.449294 
L 120.097789 167.948448 
L 120.402457 209.585836 
L 120.707125 165.229788 
L 121.011794 200.312481 
L 121.316462 172.319775 
L 121.62113 174.135197 
L 121.925799 205.815811 
L 122.535135 165.55783 
L 122.839803 169.904393 
L 123.144472 189.111822 
L 123.44914 134.688312 
L 124.058477 205.753256 
L 124.363145 190.27888 
L 124.667813 166.030778 
L 124.972482 217.844365 
L 125.27715 165.305539 
L 125.581818 188.11014 
L 125.886486 195.211618 
L 126.191155 163.99004 
L 126.495823 172.759577 
L 126.800491 165.991587 
L 127.10516 130.20093 
L 127.409828 155.294858 
L 127.714496 165.060683 
L 128.019165 151.645642 
L 128.323833 158.215975 
L 128.628501 172.06679 
L 128.93317 176.186461 
L 129.237838 206.424885 
L 129.542506 169.496707 
L 129.847174 167.328546 
L 130.151843 111.518535 
L 130.456511 160.00653 
L 130.761179 167.389903 
L 131.370516 101.882893 
L 131.675184 59.530096 
L 131.979853 95.179453 
L 132.284521 149.465086 
L 132.589189 117.832127 
L 132.893857 103.164081 
L 133.198526 101.964946 
L 133.503194 126.414129 
L 133.807862 118.320413 
L 134.112531 122.480267 
L 134.417199 107.993254 
L 134.721867 112.105146 
L 135.026536 99.537173 
L 135.331204 133.936208 
L 135.635872 112.047479 
L 135.940541 110.470815 
L 136.245209 110.147688 
L 136.549877 128.386555 
L 136.854545 110.067391 
L 137.463882 103.374191 
L 137.76855 96.104792 
L 138.073219 44.443636 
L 138.377887 100.019725 
L 138.682555 90.255293 
L 138.987224 111.358223 
L 139.291892 113.241474 
L 139.59656 89.9868 
L 139.901229 122.737928 
L 140.205897 110.601576 
L 140.510565 108.212681 
L 140.815233 114.498678 
L 141.119902 145.797135 
L 141.42457 113.538397 
L 141.729238 113.373421 
L 142.033907 105.483609 
L 142.338575 114.539487 
L 142.643243 116.201605 
L 142.947912 116.301797 
L 143.25258 96.130922 
L 143.557248 108.841638 
L 143.861916 114.220106 
L 144.166585 121.932425 
L 144.471253 114.845013 
L 144.775921 154.270971 
L 145.08059 102.535214 
L 145.385258 134.350282 
L 145.689926 131.139601 
L 145.994595 137.669654 
L 146.299263 128.979145 
L 146.603931 160.403781 
L 146.9086 142.255801 
L 147.213268 149.458234 
L 147.517936 189.840479 
L 147.822604 113.843467 
L 148.127273 156.178086 
L 148.431941 132.249835 
L 149.041278 157.210659 
L 149.345946 182.676424 
L 149.650614 167.335112 
L 149.955283 185.154168 
L 150.259951 196.133652 
L 150.564619 144.26297 
L 151.173956 206.179492 
L 151.478624 199.017817 
L 152.087961 134.441635 
L 152.392629 218.553842 
L 152.697297 154.78159 
L 153.001966 198.318949 
L 153.306634 179.339225 
L 153.611302 193.65658 
L 154.220639 154.296292 
L 154.525307 168.649705 
L 154.829975 176.536686 
L 155.134644 181.387165 
L 155.439312 180.82749 
L 155.74398 159.448418 
L 156.048649 150.401116 
L 156.353317 137.449436 
L 156.657985 175.64249 
L 156.962654 144.925257 
L 157.267322 191.726083 
L 157.57199 146.316907 
L 157.876658 138.897252 
L 158.181327 145.486359 
L 158.485995 179.884506 
L 158.790663 160.124638 
L 159.095332 174.296155 
L 159.4 177.019044 
L 159.704668 132.579077 
L 160.009337 130.423876 
L 160.314005 136.877603 
L 160.618673 147.689625 
L 160.923342 147.098807 
L 161.22801 139.306753 
L 161.532678 139.389985 
L 161.837346 143.125405 
L 162.142015 90.870887 
L 162.446683 135.44765 
L 162.751351 158.114605 
L 163.360688 130.059768 
L 163.665356 86.613885 
L 163.970025 70.218312 
L 164.274693 117.781885 
L 164.579361 88.495627 
L 164.884029 149.465401 
L 165.188698 157.712049 
L 165.493366 107.059868 
L 165.798034 90.894625 
L 166.102703 137.255735 
L 166.407371 80.054524 
L 166.712039 75.185754 
L 167.016708 93.232924 
L 167.321376 118.938329 
L 167.626044 127.18903 
L 167.930713 73.804541 
L 168.235381 118.40854 
L 168.540049 100.460122 
L 168.844717 110.503549 
L 169.149386 114.707327 
L 169.454054 99.978866 
L 169.758722 75.461607 
L 170.063391 95.496008 
L 170.368059 91.178793 
L 170.977396 111.997262 
L 171.282064 121.430628 
L 171.586732 120.395932 
L 171.8914 93.327044 
L 172.196069 102.836479 
L 172.500737 106.605792 
L 172.805405 126.462337 
L 173.110074 85.599919 
L 173.414742 126.067313 
L 174.024079 97.174208 
L 174.633415 178.094798 
L 174.938084 123.196648 
L 175.242752 153.9656 
L 175.54742 146.128485 
L 175.852088 166.258262 
L 176.156757 148.486605 
L 176.461425 119.19116 
L 177.070762 164.71848 
L 177.37543 173.768648 
L 177.680098 160.552606 
L 177.984767 165.044393 
L 178.289435 136.302406 
L 178.594103 180.609291 
L 178.898771 161.939709 
L 179.20344 159.00557 
L 179.508108 166.584981 
L 179.812776 181.150507 
L 180.117445 142.037614 
L 180.422113 160.496688 
L 180.726781 163.056577 
L 181.03145 127.259223 
L 181.336118 154.210975 
L 181.640786 171.292447 
L 181.945455 178.515741 
L 182.250123 205.856972 
L 182.554791 174.353763 
L 182.859459 173.199305 
L 183.164128 172.668645 
L 183.773464 195.990235 
L 184.382801 161.078784 
L 184.687469 223.941703 
L 184.992138 163.672161 
L 185.296806 161.86212 
L 185.601474 175.648029 
L 186.210811 175.34324 
L 186.515479 178.302283 
L 186.820147 165.270186 
L 187.124816 157.931085 
L 187.429484 174.557753 
L 187.734152 146.460412 
L 188.038821 206.655317 
L 188.343489 129.98134 
L 188.648157 147.559737 
L 188.952826 155.397072 
L 189.257494 155.65819 
L 189.562162 116.629817 
L 189.86683 94.649646 
L 190.171499 162.837063 
L 190.476167 127.31623 
L 190.780835 167.06548 
L 191.085504 138.686407 
L 191.390172 165.513039 
L 191.69484 139.955426 
L 191.999509 140.943567 
L 192.608845 105.67824 
L 192.913514 138.21885 
L 193.52285 96.302258 
L 194.132187 144.641665 
L 194.436855 92.745731 
L 194.741523 102.684297 
L 195.046192 80.689306 
L 195.655528 116.667723 
L 195.960197 70.744664 
L 196.264865 107.334989 
L 196.569533 115.069727 
L 196.874201 88.402265 
L 197.17887 110.54869 
L 197.483538 99.491704 
L 197.788206 150.537607 
L 198.092875 79.201798 
L 198.397543 127.669128 
L 198.702211 70.372282 
L 199.00688 102.126235 
L 199.311548 103.607193 
L 199.616216 81.947739 
L 199.920885 129.495295 
L 200.225553 122.131196 
L 200.530221 102.785045 
L 200.834889 100.161091 
L 201.139558 81.192426 
L 201.444226 118.080815 
L 201.748894 73.552168 
L 202.053563 91.563211 
L 202.358231 134.846238 
L 202.967568 91.67037 
L 203.272236 134.193876 
L 203.576904 92.292589 
L 203.881572 69.495289 
L 204.186241 152.398119 
L 204.795577 113.750205 
L 205.404914 140.019586 
L 205.709582 120.080427 
L 206.014251 121.111839 
L 206.318919 92.250915 
L 206.928256 166.010634 
L 207.232924 168.886638 
L 207.537592 109.980667 
L 207.84226 157.152802 
L 208.146929 153.999486 
L 208.451597 112.330407 
L 208.756265 151.845134 
L 209.365602 173.731029 
L 209.67027 180.024665 
L 209.974939 163.727686 
L 210.279607 165.469203 
L 210.584275 208.992326 
L 210.888943 222.313979 
L 211.193612 189.083566 
L 211.49828 175.837104 
L 211.802948 117.449671 
L 212.107617 165.753602 
L 212.412285 120.969539 
L 212.716953 177.735279 
L 213.021622 170.81008 
L 213.32629 157.808921 
L 213.630958 151.906936 
L 213.935627 184.046592 
L 214.240295 168.358464 
L 214.849631 214.756029 
L 215.1543 146.523404 
L 215.458968 216.803154 
L 215.763636 144.550655 
L 216.068305 141.471767 
L 216.677641 180.114472 
L 216.98231 157.759748 
L 217.286978 183.583485 
L 217.591646 173.650248 
L 217.896314 223.396662 
L 218.505651 145.751367 
L 218.810319 179.75407 
L 219.114988 150.204641 
L 219.419656 174.831645 
L 219.724324 164.682059 
L 220.028993 147.953531 
L 220.333661 114.307621 
L 220.942998 146.203647 
L 221.247666 109.155011 
L 221.552334 149.483715 
L 221.857002 137.227703 
L 222.161671 143.315328 
L 222.466339 127.312073 
L 222.771007 90.709792 
L 223.075676 100.804545 
L 223.380344 143.223668 
L 223.685012 117.977826 
L 223.989681 127.819033 
L 224.294349 93.475987 
L 224.599017 112.473134 
L 224.903686 120.1851 
L 225.208354 115.344274 
L 225.513022 125.733519 
L 225.81769 87.51297 
L 226.122359 112.435186 
L 226.427027 110.479468 
L 226.731695 117.913503 
L 227.036364 110.111004 
L 227.341032 76.181848 
L 227.6457 102.333726 
L 227.950369 91.198809 
L 228.255037 133.341099 
L 228.559705 103.699821 
L 228.864373 142.867465 
L 229.169042 119.346423 
L 229.47371 117.580167 
L 229.778378 69.713958 
L 230.083047 66.055464 
L 230.387715 96.125658 
L 230.997052 50.535195 
L 231.606388 106.489228 
L 231.911057 82.071816 
L 232.520393 103.695694 
L 232.825061 104.6626 
L 233.12973 113.012705 
L 233.434398 165.177901 
L 233.739066 101.416723 
L 234.043735 124.463031 
L 234.348403 80.603286 
L 234.653071 132.481372 
L 234.95774 121.305274 
L 235.262408 97.906511 
L 235.567076 149.080751 
L 235.871744 145.887832 
L 236.176413 107.538216 
L 236.481081 141.128833 
L 236.785749 145.697057 
L 237.090418 137.547627 
L 237.395086 140.827803 
L 237.699754 153.194112 
L 238.004423 173.378709 
L 238.309091 148.169166 
L 238.613759 149.981585 
L 238.918428 158.567454 
L 239.223096 172.163428 
L 239.527764 162.74256 
L 239.832432 159.678438 
L 240.137101 149.092515 
L 240.746437 179.64422 
L 241.051106 167.16781 
L 241.355774 164.296282 
L 241.660442 242.116364 
L 241.965111 139.373889 
L 242.269779 189.868496 
L 242.574447 171.933335 
L 242.879115 132.632283 
L 243.183784 190.753834 
L 243.488452 196.866701 
L 243.79312 196.590722 
L 244.097789 168.676461 
L 244.402457 192.302825 
L 244.707125 187.810015 
L 245.011794 159.350337 
L 245.316462 177.540636 
L 245.62113 180.479549 
L 245.925799 167.65408 
L 246.230467 176.412019 
L 246.535135 160.355687 
L 246.839803 198.828472 
L 247.144472 165.051646 
L 247.44914 170.472684 
L 248.058477 158.890831 
L 248.363145 172.568988 
L 248.667813 164.029728 
L 248.972482 175.812442 
L 249.27715 198.794215 
L 249.581818 180.320749 
L 249.886486 132.58858 
L 250.191155 160.890015 
L 250.495823 144.053249 
L 250.800491 173.529978 
L 251.10516 143.030359 
L 251.714496 162.164403 
L 252.019165 146.311494 
L 252.323833 183.613542 
L 252.628501 130.178583 
L 252.93317 132.818417 
L 253.542506 102.648904 
L 253.847174 94.456486 
L 254.151843 74.418254 
L 254.456511 81.654743 
L 254.761179 126.9098 
L 255.065848 102.087149 
L 255.370516 102.199121 
L 255.675184 111.639337 
L 255.979853 110.843136 
L 256.284521 117.429464 
L 256.589189 75.829439 
L 256.893857 91.587484 
L 257.198526 92.232535 
L 257.807862 111.583777 
L 258.112531 84.413375 
L 258.417199 96.781704 
L 258.721867 81.108995 
L 259.026536 58.942243 
L 259.331204 127.594496 
L 259.635872 86.123979 
L 259.940541 106.221641 
L 260.245209 84.939241 
L 260.549877 104.166976 
L 260.854545 71.806088 
L 261.159214 148.415134 
L 261.463882 116.814611 
L 261.76855 110.12798 
L 262.073219 125.926644 
L 262.377887 104.615152 
L 262.682555 126.297455 
L 262.987224 66.583639 
L 263.291892 125.011666 
L 263.59656 123.470218 
L 263.901229 65.945002 
L 264.205897 129.23729 
L 264.510565 104.873517 
L 264.815233 113.45596 
L 265.119902 86.380193 
L 265.42457 148.635864 
L 265.729238 117.129616 
L 266.033907 136.51346 
L 266.338575 165.49464 
L 266.643243 168.405207 
L 266.947912 150.988743 
L 267.25258 115.299849 
L 267.861916 180.159499 
L 268.166585 178.634224 
L 268.471253 117.275464 
L 268.775921 162.027822 
L 269.08059 124.277734 
L 269.385258 179.753723 
L 269.689926 205.619533 
L 269.994595 170.289536 
L 270.299263 165.639289 
L 270.603931 156.285121 
L 270.9086 142.360209 
L 271.213268 186.640001 
L 271.517936 171.02081 
L 271.822604 144.887327 
L 272.431941 166.555005 
L 272.736609 155.717285 
L 273.041278 182.536505 
L 273.345946 163.927447 
L 273.650614 178.40884 
L 273.955283 228.071219 
L 274.259951 187.75076 
L 274.564619 169.197808 
L 274.869287 188.565738 
L 275.173956 152.811838 
L 275.478624 155.154133 
L 275.783292 172.750457 
L 276.087961 198.801523 
L 276.392629 175.389687 
L 276.697297 188.221661 
L 277.001966 166.8831 
L 277.306634 216.113394 
L 277.611302 130.845785 
L 277.915971 153.107008 
L 278.220639 147.82526 
L 278.525307 160.431544 
L 278.829975 180.811593 
L 279.134644 178.57995 
L 279.439312 123.905118 
L 279.74398 173.875354 
L 280.048649 131.781472 
L 280.353317 173.620199 
L 280.657985 139.656052 
L 280.962654 166.39284 
L 281.267322 155.026685 
L 281.876658 168.649794 
L 282.181327 163.876153 
L 282.485995 170.100775 
L 282.790663 165.416867 
L 283.095332 131.875434 
L 283.4 164.621696 
L 283.704668 121.483962 
L 284.009337 101.051543 
L 284.618673 140.55227 
L 284.923342 123.77576 
L 285.22801 139.440453 
L 285.532678 84.689825 
L 285.837346 107.206032 
L 286.142015 101.738952 
L 286.446683 114.490344 
L 286.751351 62.533109 
L 287.05602 119.606788 
L 287.360688 126.31486 
L 287.665356 125.081805 
L 287.970025 76.113732 
L 288.274693 114.479712 
L 288.579361 55.694666 
L 288.884029 101.502098 
L 289.188698 98.84607 
L 289.493366 77.117817 
L 290.102703 124.497332 
L 290.407371 100.067648 
L 290.712039 85.47439 
L 291.016708 94.29096 
L 291.321376 93.106339 
L 291.626044 89.295154 
L 291.930713 93.010731 
L 292.235381 94.651775 
L 292.540049 90.027369 
L 292.844717 95.849705 
L 293.454054 123.156723 
L 293.758722 117.463351 
L 294.063391 87.234341 
L 294.368059 104.793034 
L 294.977396 126.368941 
L 295.282064 85.206503 
L 295.586732 131.30139 
L 295.8914 105.873629 
L 296.196069 99.707373 
L 296.500737 130.680732 
L 296.805405 131.966122 
L 297.110074 161.213035 
L 297.414742 126.905456 
L 297.71941 109.16023 
L 298.024079 132.247374 
L 298.328747 177.673058 
L 298.633415 144.175364 
L 298.938084 125.52626 
L 299.242752 150.620005 
L 299.54742 158.705209 
L 299.852088 146.738841 
L 300.156757 173.136798 
L 300.461425 174.262445 
L 300.766093 156.144102 
L 301.070762 173.950316 
L 301.37543 200.65113 
L 301.680098 167.14235 
L 301.984767 184.690481 
L 302.289435 180.32789 
L 302.594103 202.201025 
L 302.898771 151.803431 
L 303.508108 182.386198 
L 303.812776 170.701334 
L 304.117445 177.49398 
L 304.422113 140.885754 
L 304.726781 192.669285 
L 305.03145 196.888716 
L 305.336118 173.747854 
L 305.640786 198.458955 
L 305.945455 202.207265 
L 306.554791 159.626909 
L 306.859459 161.301022 
L 307.164128 207.73347 
L 307.468796 169.858611 
L 307.773464 204.253021 
L 308.078133 176.55647 
L 308.382801 183.517207 
L 308.687469 144.982227 
L 308.992138 181.445614 
L 309.296806 187.04593 
L 309.601474 146.123273 
L 309.906143 187.371301 
L 310.210811 119.52955 
L 310.515479 156.699251 
L 310.820147 144.593564 
L 311.124816 164.082426 
L 311.429484 164.504502 
L 311.734152 179.633173 
L 312.038821 131.495955 
L 312.343489 129.737848 
L 312.648157 153.709194 
L 312.952826 95.183685 
L 313.257494 152.928486 
L 313.562162 97.0984 
L 313.86683 107.654957 
L 314.171499 114.056353 
L 314.476167 103.937311 
L 314.780835 105.392955 
L 315.085504 129.971463 
L 315.390172 96.327378 
L 315.69484 135.14359 
L 315.999509 88.677171 
L 316.304177 130.62838 
L 316.608845 107.347332 
L 316.913514 133.998268 
L 317.218182 102.422774 
L 317.52285 130.168165 
L 317.827518 72.365263 
L 318.132187 108.90795 
L 318.436855 122.908001 
L 318.741523 72.135563 
L 319.046192 105.191458 
L 319.35086 79.292126 
L 319.655528 89.567606 
L 320.264865 81.315365 
L 320.874201 103.623377 
L 321.17887 65.23409 
L 321.788206 70.218377 
L 322.092875 129.127283 
L 322.397543 66.019571 
L 322.702211 63.060759 
L 323.00688 71.166199 
L 323.311548 107.063682 
L 323.616216 110.982034 
L 323.920885 102.298424 
L 324.225553 98.84063 
L 324.530221 107.835025 
L 324.834889 86.881296 
L 325.139558 129.008443 
L 325.444226 138.715159 
L 325.748894 88.031343 
L 326.053563 103.572883 
L 326.358231 137.634016 
L 326.662899 113.042502 
L 326.967568 143.132281 
L 327.272236 135.774867 
L 327.576904 143.868069 
L 327.881572 118.694816 
L 328.490909 137.379691 
L 328.795577 140.698601 
L 329.100246 117.695193 
L 329.404914 135.924524 
L 329.709582 130.052861 
L 330.623587 174.322227 
L 330.928256 146.683133 
L 331.232924 177.179659 
L 331.537592 173.272879 
L 331.84226 188.474245 
L 332.146929 166.417301 
L 332.451597 194.646511 
L 332.756265 168.945208 
L 333.060934 185.172998 
L 333.365602 152.738211 
L 333.67027 186.612913 
L 333.974939 178.214249 
L 334.279607 173.936207 
L 334.584275 187.490849 
L 334.888943 195.248656 
L 335.193612 165.273252 
L 335.49828 200.157152 
L 335.802948 178.621537 
L 336.107617 179.647347 
L 336.716953 157.63643 
L 337.021622 189.614052 
L 337.32629 185.314202 
L 337.630958 183.907099 
L 337.935627 209.139299 
L 338.240295 150.014103 
L 338.544963 182.319266 
L 338.849631 154.368437 
L 339.458968 201.416881 
L 339.763636 198.287707 
L 340.068305 154.757083 
L 340.677641 178.065104 
L 340.98231 153.054772 
L 341.286978 137.665334 
L 341.591646 152.17492 
L 341.896314 177.083719 
L 342.200983 124.523288 
L 342.505651 114.055118 
L 342.810319 155.845446 
L 343.114988 147.741933 
L 343.419656 126.240417 
L 344.028993 154.441608 
L 344.333661 135.211965 
L 344.638329 135.978054 
L 344.942998 144.495951 
L 345.247666 124.773324 
L 345.552334 94.087284 
L 345.857002 121.628721 
L 346.161671 138.227241 
L 346.466339 103.596744 
L 346.771007 139.369128 
L 347.075676 130.894592 
L 347.380344 90.413826 
L 347.685012 110.584332 
L 347.989681 105.430251 
L 348.294349 124.205798 
L 348.599017 92.546864 
L 348.903686 104.201389 
L 349.208354 104.765761 
L 349.513022 95.835481 
L 349.81769 77.680499 
L 350.122359 86.596426 
L 350.427027 131.872919 
L 350.731695 122.142212 
L 351.036364 77.896072 
L 351.341032 107.966358 
L 351.6457 77.446628 
L 352.255037 126.105041 
L 352.559705 113.230214 
L 352.864373 121.36913 
L 353.47371 82.647178 
L 353.778378 107.452511 
L 354.083047 118.883369 
L 354.387715 112.207554 
L 354.692383 133.866855 
L 354.997052 116.497546 
L 355.30172 129.267582 
L 355.606388 148.363208 
L 355.911057 130.413095 
L 356.215725 120.867892 
L 356.520393 117.619532 
L 356.825061 110.476081 
L 357.12973 123.224025 
L 357.434398 121.3981 
L 357.739066 137.908279 
L 358.043735 92.803303 
L 358.653071 151.591605 
L 358.95774 106.299947 
L 359.262408 148.697148 
L 359.567076 157.987396 
L 359.871744 156.843764 
L 360.176413 137.620016 
L 360.481081 195.899792 
L 360.785749 162.898192 
L 361.090418 148.851107 
L 361.395086 141.223471 
L 361.699754 160.328995 
L 362.004423 145.559415 
L 362.309091 145.970423 
L 362.918428 192.623228 
L 363.223096 197.836739 
L 363.527764 154.882263 
L 363.832432 186.748392 
L 364.137101 176.422763 
L 364.441769 178.949525 
L 364.746437 200.347906 
L 365.051106 178.420818 
L 365.355774 179.602717 
L 365.660442 191.340561 
L 365.965111 162.346356 
L 366.269779 204.563528 
L 366.574447 173.735782 
L 366.879115 162.951611 
L 367.183784 168.202469 
L 367.488452 162.023252 
L 367.79312 191.171414 
L 368.097789 184.169443 
L 368.402457 161.50327 
L 368.707125 184.808897 
L 369.011794 184.862948 
L 369.316462 167.118068 
L 369.62113 156.294083 
L 369.925799 164.609314 
L 370.230467 161.796547 
L 370.535135 205.57228 
L 370.839803 184.143655 
L 371.144472 154.004241 
L 371.44914 171.836333 
L 371.753808 129.781565 
L 372.058477 154.300145 
L 372.363145 112.540183 
L 372.667813 118.690239 
L 372.972482 149.647103 
L 373.27715 130.421092 
L 373.581818 137.543072 
L 373.581818 137.543072 
" style="fill:none;stroke:#1f77b4;stroke-linecap:square;stroke-width:1.5;"/>
   </g>
   <g id="line2d_13">
    <path clip-path="url(#pfa43245412)" d="M 69.218182 138.280333 
L 71.655528 118.573677 
L 72.874201 110.278192 
L 73.788206 105.186617 
L 74.702211 101.267402 
L 75.311548 99.376336 
L 75.920885 98.098809 
L 76.530221 97.454969 
L 76.834889 97.37425 
L 77.139558 97.454969 
L 77.444226 97.696807 
L 78.053563 98.65939 
L 78.662899 100.246819 
L 79.272236 102.434059 
L 80.186241 106.761654 
L 81.100246 112.205814 
L 82.318919 120.86337 
L 84.146929 135.711819 
L 86.888943 157.986989 
L 88.107617 166.282474 
L 89.021622 171.374049 
L 89.935627 175.293263 
L 90.544963 177.18433 
L 91.1543 178.461857 
L 91.763636 179.105697 
L 92.068305 179.186416 
L 92.372973 179.105697 
L 92.677641 178.863859 
L 93.286978 177.901276 
L 93.896314 176.313847 
L 94.505651 174.126607 
L 95.419656 169.799011 
L 96.333661 164.354851 
L 97.552334 155.697296 
L 99.380344 140.848847 
L 102.122359 118.573677 
L 103.341032 110.278192 
L 104.255037 105.186617 
L 105.169042 101.267402 
L 105.778378 99.376336 
L 106.387715 98.098809 
L 106.997052 97.454969 
L 107.30172 97.37425 
L 107.606388 97.454969 
L 107.911057 97.696807 
L 108.520393 98.65939 
L 109.12973 100.246819 
L 109.739066 102.434059 
L 110.653071 106.761654 
L 111.567076 112.205814 
L 112.785749 120.86337 
L 114.613759 135.711819 
L 117.355774 157.986989 
L 118.574447 166.282474 
L 119.488452 171.374049 
L 120.402457 175.293263 
L 121.011794 177.18433 
L 121.62113 178.461857 
L 122.230467 179.105697 
L 122.535135 179.186416 
L 122.839803 179.105697 
L 123.144472 178.863859 
L 123.753808 177.901276 
L 124.363145 176.313847 
L 124.972482 174.126607 
L 125.886486 169.799011 
L 126.800491 164.354851 
L 128.019165 155.697296 
L 129.847174 140.848847 
L 132.589189 118.573677 
L 133.807862 110.278192 
L 134.721867 105.186617 
L 135.635872 101.267402 
L 136.245209 99.376336 
L 136.854545 98.098809 
L 137.463882 97.454969 
L 137.76855 97.37425 
L 138.073219 97.454969 
L 138.377887 97.696807 
L 138.987224 98.65939 
L 139.59656 100.246819 
L 140.205897 102.434059 
L 141.119902 106.761654 
L 142.033907 112.205814 
L 143.25258 120.86337 
L 145.08059 135.711819 
L 147.822604 157.986989 
L 149.041278 166.282474 
L 149.955283 171.374049 
L 150.869287 175.293263 
L 151.478624 177.18433 
L 152.087961 178.461857 
L 152.697297 179.105697 
L 153.001966 179.186416 
L 153.306634 179.105697 
L 153.611302 178.863859 
L 154.220639 177.901276 
L 154.829975 176.313847 
L 155.439312 174.126607 
L 156.353317 169.799011 
L 157.267322 164.354851 
L 158.485995 155.697296 
L 160.314005 140.848847 
L 163.05602 118.573677 
L 164.274693 110.278192 
L 165.188698 105.186617 
L 166.102703 101.267402 
L 166.712039 99.376336 
L 167.321376 98.098809 
L 167.930713 97.454969 
L 168.235381 97.37425 
L 168.540049 97.454969 
L 168.844717 97.696807 
L 169.454054 98.65939 
L 170.063391 100.246819 
L 170.672727 102.434059 
L 171.586732 106.761654 
L 172.500737 112.205814 
L 173.71941 120.86337 
L 175.54742 135.711819 
L 178.289435 157.986989 
L 179.508108 166.282474 
L 180.422113 171.374049 
L 181.336118 175.293263 
L 181.945455 177.18433 
L 182.554791 178.461857 
L 183.164128 179.105697 
L 183.468796 179.186416 
L 183.773464 179.105697 
L 184.078133 178.863859 
L 184.687469 177.901276 
L 185.296806 176.313847 
L 185.906143 174.126607 
L 186.820147 169.799011 
L 187.734152 164.354851 
L 188.952826 155.697296 
L 190.780835 140.848847 
L 193.52285 118.573677 
L 194.741523 110.278192 
L 195.655528 105.186617 
L 196.569533 101.267402 
L 197.17887 99.376336 
L 197.788206 98.098809 
L 198.397543 97.454969 
L 198.702211 97.37425 
L 199.00688 97.454969 
L 199.311548 97.696807 
L 199.920885 98.65939 
L 200.530221 100.246819 
L 201.139558 102.434059 
L 202.053563 106.761654 
L 202.967568 112.205814 
L 204.186241 120.86337 
L 206.014251 135.711819 
L 208.756265 157.986989 
L 209.974939 166.282474 
L 210.888943 171.374049 
L 211.802948 175.293263 
L 212.412285 177.18433 
L 213.021622 178.461857 
L 213.630958 179.105697 
L 213.935627 179.186416 
L 214.240295 179.105697 
L 214.544963 178.863859 
L 215.1543 177.901276 
L 215.763636 176.313847 
L 216.372973 174.126607 
L 217.286978 169.799011 
L 218.200983 164.354851 
L 219.419656 155.697296 
L 221.247666 140.848847 
L 223.989681 118.573677 
L 225.208354 110.278192 
L 226.122359 105.186617 
L 227.036364 101.267402 
L 227.6457 99.376336 
L 228.255037 98.098809 
L 228.864373 97.454969 
L 229.169042 97.37425 
L 229.47371 97.454969 
L 229.778378 97.696807 
L 230.387715 98.65939 
L 230.997052 100.246819 
L 231.606388 102.434059 
L 232.520393 106.761654 
L 233.434398 112.205814 
L 234.653071 120.86337 
L 236.481081 135.711819 
L 239.223096 157.986989 
L 240.441769 166.282474 
L 241.355774 171.374049 
L 242.269779 175.293263 
L 242.879115 177.18433 
L 243.488452 178.461857 
L 244.097789 179.105697 
L 244.402457 179.186416 
L 244.707125 179.105697 
L 245.011794 178.863859 
L 245.62113 177.901276 
L 246.230467 176.313847 
L 246.839803 174.126607 
L 247.753808 169.799011 
L 248.667813 164.354851 
L 249.886486 155.697296 
L 251.714496 140.848847 
L 254.456511 118.573677 
L 255.675184 110.278192 
L 256.589189 105.186617 
L 257.503194 101.267402 
L 258.112531 99.376336 
L 258.721867 98.098809 
L 259.331204 97.454969 
L 259.635872 97.37425 
L 259.940541 97.454969 
L 260.245209 97.696807 
L 260.854545 98.65939 
L 261.463882 100.246819 
L 262.073219 102.434059 
L 262.987224 106.761654 
L 263.901229 112.205814 
L 265.119902 120.86337 
L 266.947912 135.711819 
L 269.689926 157.986989 
L 270.9086 166.282474 
L 271.822604 171.374049 
L 272.736609 175.293263 
L 273.345946 177.18433 
L 273.955283 178.461857 
L 274.564619 179.105697 
L 274.869287 179.186416 
L 275.173956 179.105697 
L 275.478624 178.863859 
L 276.087961 177.901276 
L 276.697297 176.313847 
L 277.306634 174.126607 
L 278.220639 169.799011 
L 279.134644 164.354851 
L 280.353317 155.697296 
L 282.181327 140.848847 
L 284.923342 118.573677 
L 286.142015 110.278192 
L 287.05602 105.186617 
L 287.970025 101.267402 
L 288.579361 99.376336 
L 289.188698 98.098809 
L 289.798034 97.454969 
L 290.102703 97.37425 
L 290.407371 97.454969 
L 290.712039 97.696807 
L 291.321376 98.65939 
L 291.930713 100.246819 
L 292.540049 102.434059 
L 293.454054 106.761654 
L 294.368059 112.205814 
L 295.586732 120.86337 
L 297.414742 135.711819 
L 300.156757 157.986989 
L 301.37543 166.282474 
L 302.289435 171.374049 
L 303.20344 175.293263 
L 303.812776 177.18433 
L 304.422113 178.461857 
L 305.03145 179.105697 
L 305.336118 179.186416 
L 305.640786 179.105697 
L 305.945455 178.863859 
L 306.554791 177.901276 
L 307.164128 176.313847 
L 307.773464 174.126607 
L 308.687469 169.799011 
L 309.601474 164.354851 
L 310.820147 155.697296 
L 312.648157 140.848847 
L 315.390172 118.573677 
L 316.608845 110.278192 
L 317.52285 105.186617 
L 318.436855 101.267402 
L 319.046192 99.376336 
L 319.655528 98.098809 
L 320.264865 97.454969 
L 320.569533 97.37425 
L 320.874201 97.454969 
L 321.17887 97.696807 
L 321.788206 98.65939 
L 322.397543 100.246819 
L 323.00688 102.434059 
L 323.920885 106.761654 
L 324.834889 112.205814 
L 326.053563 120.86337 
L 327.881572 135.711819 
L 330.623587 157.986989 
L 331.84226 166.282474 
L 332.756265 171.374049 
L 333.67027 175.293263 
L 334.279607 177.18433 
L 334.888943 178.461857 
L 335.49828 179.105697 
L 335.802948 179.186416 
L 336.107617 179.105697 
L 336.412285 178.863859 
L 337.021622 177.901276 
L 337.630958 176.313847 
L 338.240295 174.126607 
L 339.1543 169.799011 
L 340.068305 164.354851 
L 341.286978 155.697296 
L 343.114988 140.848847 
L 345.857002 118.573677 
L 347.075676 110.278192 
L 347.989681 105.186617 
L 348.903686 101.267402 
L 349.513022 99.376336 
L 350.122359 98.098809 
L 350.731695 97.454969 
L 351.036364 97.37425 
L 351.341032 97.454969 
L 351.6457 97.696807 
L 352.255037 98.65939 
L 352.864373 100.246819 
L 353.47371 102.434059 
L 354.387715 106.761654 
L 355.30172 112.205814 
L 356.520393 120.86337 
L 358.348403 135.711819 
L 361.090418 157.986989 
L 362.309091 166.282474 
L 363.223096 171.374049 
L 364.137101 175.293263 
L 364.746437 177.18433 
L 365.355774 178.461857 
L 365.965111 179.105697 
L 366.269779 179.186416 
L 366.574447 179.105697 
L 366.879115 178.863859 
L 367.488452 177.901276 
L 368.097789 176.313847 
L 368.707125 174.126607 
L 369.62113 169.799011 
L 370.535135 164.354851 
L 371.753808 155.697296 
L 373.581818 140.848847 
L 373.581818 140.848847 
" style="fill:none;stroke:#ff7f0e;stroke-linecap:square;stroke-width:1.5;"/>
   </g>
   <g id="patch_3">
    <path d="M 54 252 
L 54 34.56 
" style="fill:none;stroke:#000000;stroke-linecap:square;stroke-linejoin:miter;stroke-width:0.8;"/>
   </g>
   <g id="patch_4">
    <path d="M 388.8 252 
L 388.8 34.56 
" style="fill:none;stroke:#000000;stroke-linecap:square;stroke-linejoin:miter;stroke-width:0.8;"/>
   </g>
   <g id="patch_5">
    <path d="M 54 252 
L 388.8 252 
" style="fill:none;stroke:#000000;stroke-linecap:square;stroke-linejoin:miter;stroke-width:0.8;"/>
   </g>
   <g id="patch_6">
    <path d="M 54 34.56 
L 388.8 34.56 
" style="fill:none;stroke:#000000;stroke-linecap:square;stroke-linejoin:miter;stroke-width:0.8;"/>
   </g>
   <g id="legend_1">
    <g id="patch_7">
     <path d="M 314.823438 71.91625 
L 381.8 71.91625 
Q 383.8 71.91625 383.8 69.91625 
L 383.8 41.56 
Q 383.8 39.56 381.8 39.56 
L 314.823438 39.56 
Q 312.823438 39.56 312.823438 41.56 
L 312.823438 69.91625 
Q 312.823438 71.91625 314.823438 71.91625 
z
" style="fill:#ffffff;opacity:0.8;stroke:#cccccc;stroke-linejoin:miter;"/>
    </g>
    <g id="line2d_14">
     <path d="M 316.823438 47.658437 
L 336.823438 47.658437 
" style="fill:none;stroke:#1f77b4;stroke-linecap:square;stroke-width:1.5;"/>
    </g>
    <g id="line2d_15"/>
    <g id="text_12">
     <!-- +noise -->
     <g transform="translate(344.823438 51.158437)scale(0.1 -0.1)">
      <defs>
       <path d="M 2944 4013 
L 2944 2272 
L 4684 2272 
L 4684 1741 
L 2944 1741 
L 2944 0 
L 2419 0 
L 2419 1741 
L 678 1741 
L 678 2272 
L 2419 2272 
L 2419 4013 
L 2944 4013 
z
" id="DejaVuSans-2b" transform="scale(0.015625)"/>
       <path d="M 3513 2113 
L 3513 0 
L 2938 0 
L 2938 2094 
Q 2938 2591 2744 2837 
Q 2550 3084 2163 3084 
Q 1697 3084 1428 2787 
Q 1159 2491 1159 1978 
L 1159 0 
L 581 0 
L 581 3500 
L 1159 3500 
L 1159 2956 
Q 1366 3272 1645 3428 
Q 1925 3584 2291 3584 
Q 2894 3584 3203 3211 
Q 3513 2838 3513 2113 
z
" id="DejaVuSans-6e" transform="scale(0.015625)"/>
       <path d="M 1959 3097 
Q 1497 3097 1228 2736 
Q 959 2375 959 1747 
Q 959 1119 1226 758 
Q 1494 397 1959 397 
Q 2419 397 2687 759 
Q 2956 1122 2956 1747 
Q 2956 2369 2687 2733 
Q 2419 3097 1959 3097 
z
M 1959 3584 
Q 2709 3584 3137 3096 
Q 3566 2609 3566 1747 
Q 3566 888 3137 398 
Q 2709 -91 1959 -91 
Q 1206 -91 779 398 
Q 353 888 353 1747 
Q 353 2609 779 3096 
Q 1206 3584 1959 3584 
z
" id="DejaVuSans-6f" transform="scale(0.015625)"/>
       <path d="M 603 3500 
L 1178 3500 
L 1178 0 
L 603 0 
L 603 3500 
z
M 603 4863 
L 1178 4863 
L 1178 4134 
L 603 4134 
L 603 4863 
z
" id="DejaVuSans-69" transform="scale(0.015625)"/>
       <path d="M 2834 3397 
L 2834 2853 
Q 2591 2978 2328 3040 
Q 2066 3103 1784 3103 
Q 1356 3103 1142 2972 
Q 928 2841 928 2578 
Q 928 2378 1081 2264 
Q 1234 2150 1697 2047 
L 1894 2003 
Q 2506 1872 2764 1633 
Q 3022 1394 3022 966 
Q 3022 478 2636 193 
Q 2250 -91 1575 -91 
Q 1294 -91 989 -36 
Q 684 19 347 128 
L 347 722 
Q 666 556 975 473 
Q 1284 391 1588 391 
Q 1994 391 2212 530 
Q 2431 669 2431 922 
Q 2431 1156 2273 1281 
Q 2116 1406 1581 1522 
L 1381 1569 
Q 847 1681 609 1914 
Q 372 2147 372 2553 
Q 372 3047 722 3315 
Q 1072 3584 1716 3584 
Q 2034 3584 2315 3537 
Q 2597 3491 2834 3397 
z
" id="DejaVuSans-73" transform="scale(0.015625)"/>
       <path d="M 3597 1894 
L 3597 1613 
L 953 1613 
Q 991 1019 1311 708 
Q 1631 397 2203 397 
Q 2534 397 2845 478 
Q 3156 559 3463 722 
L 3463 178 
Q 3153 47 2828 -22 
Q 2503 -91 2169 -91 
Q 1331 -91 842 396 
Q 353 884 353 1716 
Q 353 2575 817 3079 
Q 1281 3584 2069 3584 
Q 2775 3584 3186 3129 
Q 3597 2675 3597 1894 
z
M 3022 2063 
Q 3016 2534 2758 2815 
Q 2500 3097 2075 3097 
Q 1594 3097 1305 2825 
Q 1016 2553 972 2059 
L 3022 2063 
z
" id="DejaVuSans-65" transform="scale(0.015625)"/>
      </defs>
      <use xlink:href="#DejaVuSans-2b"/>
      <use x="83.789062" xlink:href="#DejaVuSans-6e"/>
      <use x="147.167969" xlink:href="#DejaVuSans-6f"/>
      <use x="208.349609" xlink:href="#DejaVuSans-69"/>
      <use x="236.132812" xlink:href="#DejaVuSans-73"/>
      <use x="288.232422" xlink:href="#DejaVuSans-65"/>
     </g>
    </g>
    <g id="line2d_16">
     <path d="M 316.823438 62.336562 
L 336.823438 62.336562 
" style="fill:none;stroke:#ff7f0e;stroke-linecap:square;stroke-width:1.5;"/>
    </g>
    <g id="line2d_17"/>
    <g id="text_13">
     <!-- signal -->
     <g transform="translate(344.823438 65.836562)scale(0.1 -0.1)">
      <defs>
       <path d="M 2906 1791 
Q 2906 2416 2648 2759 
Q 2391 3103 1925 3103 
Q 1463 3103 1205 2759 
Q 947 2416 947 1791 
Q 947 1169 1205 825 
Q 1463 481 1925 481 
Q 2391 481 2648 825 
Q 2906 1169 2906 1791 
z
M 3481 434 
Q 3481 -459 3084 -895 
Q 2688 -1331 1869 -1331 
Q 1566 -1331 1297 -1286 
Q 1028 -1241 775 -1147 
L 775 -588 
Q 1028 -725 1275 -790 
Q 1522 -856 1778 -856 
Q 2344 -856 2625 -561 
Q 2906 -266 2906 331 
L 2906 616 
Q 2728 306 2450 153 
Q 2172 0 1784 0 
Q 1141 0 747 490 
Q 353 981 353 1791 
Q 353 2603 747 3093 
Q 1141 3584 1784 3584 
Q 2172 3584 2450 3431 
Q 2728 3278 2906 2969 
L 2906 3500 
L 3481 3500 
L 3481 434 
z
" id="DejaVuSans-67" transform="scale(0.015625)"/>
       <path d="M 2194 1759 
Q 1497 1759 1228 1600 
Q 959 1441 959 1056 
Q 959 750 1161 570 
Q 1363 391 1709 391 
Q 2188 391 2477 730 
Q 2766 1069 2766 1631 
L 2766 1759 
L 2194 1759 
z
M 3341 1997 
L 3341 0 
L 2766 0 
L 2766 531 
Q 2569 213 2275 61 
Q 1981 -91 1556 -91 
Q 1019 -91 701 211 
Q 384 513 384 1019 
Q 384 1609 779 1909 
Q 1175 2209 1959 2209 
L 2766 2209 
L 2766 2266 
Q 2766 2663 2505 2880 
Q 2244 3097 1772 3097 
Q 1472 3097 1187 3025 
Q 903 2953 641 2809 
L 641 3341 
Q 956 3463 1253 3523 
Q 1550 3584 1831 3584 
Q 2591 3584 2966 3190 
Q 3341 2797 3341 1997 
z
" id="DejaVuSans-61" transform="scale(0.015625)"/>
       <path d="M 603 4863 
L 1178 4863 
L 1178 0 
L 603 0 
L 603 4863 
z
" id="DejaVuSans-6c" transform="scale(0.015625)"/>
      </defs>
      <use xlink:href="#DejaVuSans-73"/>
      <use x="52.099609" xlink:href="#DejaVuSans-69"/>
      <use x="79.882812" xlink:href="#DejaVuSans-67"/>
      <use x="143.359375" xlink:href="#DejaVuSans-6e"/>
      <use x="206.738281" xlink:href="#DejaVuSans-61"/>
      <use x="268.017578" xlink:href="#DejaVuSans-6c"/>
     </g>
    </g>
   </g>
  </g>
 </g>
 <defs>
  <clipPath id="pfa43245412">
   <rect height="217.44" width="334.8" x="54" y="34.56"/>
  </clipPath>
 </defs>
</svg>
