<?xml version="1.0" encoding="utf-8" standalone="no"?>
<!DOCTYPE svg PUBLIC "-//W3C//DTD SVG 1.1//EN"
  "http://www.w3.org/Graphics/SVG/1.1/DTD/svg11.dtd">
<svg height="288pt" version="1.1" viewBox="0 0 432 288" width="432pt" xmlns="http://www.w3.org/2000/svg" xmlns:xlink="http://www.w3.org/1999/xlink">
 <metadata>
  <rdf:RDF xmlns:cc="http://creativecommons.org/ns#" xmlns:dc="http://purl.org/dc/elements/1.1/" xmlns:rdf="http://www.w3.org/1999/02/22-rdf-syntax-ns#">
   <cc:Work>
    <dc:type rdf:resource="http://purl.org/dc/dcmitype/StillImage"/>
    <dc:date>2021-06-10T03:22:06.542392</dc:date>
    <dc:format>image/svg+xml</dc:format>
    <dc:creator>
     <cc:Agent>
      <dc:title>Matplotlib v3.4.1, https://matplotlib.org/</dc:title>
     </cc:Agent>
    </dc:creator>
   </cc:Work>
  </rdf:RDF>
 </metadata>
 <defs>
  <style type="text/css">*{stroke-linecap:butt;stroke-linejoin:round;}</style>
 </defs>
 <g id="figure_1">
  <g id="patch_1">
   <path d="M 0 288 
L 432 288 
L 432 0 
L 0 0 
z
" style="fill:none;"/>
  </g>
  <g id="axes_1">
   <g id="patch_2">
    <path d="M 54 252 
L 388.8 252 
L 388.8 34.56 
L 54 34.56 
z
" style="fill:#ffffff;"/>
   </g>
   <g id="matplotlib.axis_1">
    <g id="xtick_1">
     <g id="line2d_1">
      <defs>
       <path d="M 0 0 
L 0 3.5 
" id="m1f5e8fce22" style="stroke:#000000;stroke-width:0.8;"/>
      </defs>
      <g>
       <use style="stroke:#000000;stroke-width:0.8;" x="69.218182" xlink:href="#m1f5e8fce22" y="252"/>
      </g>
     </g>
     <g id="text_1">
      <!-- 0 -->
      <g transform="translate(66.036932 266.598437)scale(0.1 -0.1)">
       <defs>
        <path d="M 2034 4250 
Q 1547 4250 1301 3770 
Q 1056 3291 1056 2328 
Q 1056 1369 1301 889 
Q 1547 409 2034 409 
Q 2525 409 2770 889 
Q 3016 1369 3016 2328 
Q 3016 3291 2770 3770 
Q 2525 4250 2034 4250 
z
M 2034 4750 
Q 2819 4750 3233 4129 
Q 3647 3509 3647 2328 
Q 3647 1150 3233 529 
Q 2819 -91 2034 -91 
Q 1250 -91 836 529 
Q 422 1150 422 2328 
Q 422 3509 836 4129 
Q 1250 4750 2034 4750 
z
" id="DejaVuSans-30" transform="scale(0.015625)"/>
       </defs>
       <use xlink:href="#DejaVuSans-30"/>
      </g>
     </g>
    </g>
    <g id="xtick_2">
     <g id="line2d_2">
      <g>
       <use style="stroke:#000000;stroke-width:0.8;" x="130.151843" xlink:href="#m1f5e8fce22" y="252"/>
      </g>
     </g>
     <g id="text_2">
      <!-- 2 -->
      <g transform="translate(126.970593 266.598437)scale(0.1 -0.1)">
       <defs>
        <path d="M 1228 531 
L 3431 531 
L 3431 0 
L 469 0 
L 469 531 
Q 828 903 1448 1529 
Q 2069 2156 2228 2338 
Q 2531 2678 2651 2914 
Q 2772 3150 2772 3378 
Q 2772 3750 2511 3984 
Q 2250 4219 1831 4219 
Q 1534 4219 1204 4116 
Q 875 4013 500 3803 
L 500 4441 
Q 881 4594 1212 4672 
Q 1544 4750 1819 4750 
Q 2544 4750 2975 4387 
Q 3406 4025 3406 3419 
Q 3406 3131 3298 2873 
Q 3191 2616 2906 2266 
Q 2828 2175 2409 1742 
Q 1991 1309 1228 531 
z
" id="DejaVuSans-32" transform="scale(0.015625)"/>
       </defs>
       <use xlink:href="#DejaVuSans-32"/>
      </g>
     </g>
    </g>
    <g id="xtick_3">
     <g id="line2d_3">
      <g>
       <use style="stroke:#000000;stroke-width:0.8;" x="191.085504" xlink:href="#m1f5e8fce22" y="252"/>
      </g>
     </g>
     <g id="text_3">
      <!-- 4 -->
      <g transform="translate(187.904254 266.598437)scale(0.1 -0.1)">
       <defs>
        <path d="M 2419 4116 
L 825 1625 
L 2419 1625 
L 2419 4116 
z
M 2253 4666 
L 3047 4666 
L 3047 1625 
L 3713 1625 
L 3713 1100 
L 3047 1100 
L 3047 0 
L 2419 0 
L 2419 1100 
L 313 1100 
L 313 1709 
L 2253 4666 
z
" id="DejaVuSans-34" transform="scale(0.015625)"/>
       </defs>
       <use xlink:href="#DejaVuSans-34"/>
      </g>
     </g>
    </g>
    <g id="xtick_4">
     <g id="line2d_4">
      <g>
       <use style="stroke:#000000;stroke-width:0.8;" x="252.019165" xlink:href="#m1f5e8fce22" y="252"/>
      </g>
     </g>
     <g id="text_4">
      <!-- 6 -->
      <g transform="translate(248.837915 266.598437)scale(0.1 -0.1)">
       <defs>
        <path d="M 2113 2584 
Q 1688 2584 1439 2293 
Q 1191 2003 1191 1497 
Q 1191 994 1439 701 
Q 1688 409 2113 409 
Q 2538 409 2786 701 
Q 3034 994 3034 1497 
Q 3034 2003 2786 2293 
Q 2538 2584 2113 2584 
z
M 3366 4563 
L 3366 3988 
Q 3128 4100 2886 4159 
Q 2644 4219 2406 4219 
Q 1781 4219 1451 3797 
Q 1122 3375 1075 2522 
Q 1259 2794 1537 2939 
Q 1816 3084 2150 3084 
Q 2853 3084 3261 2657 
Q 3669 2231 3669 1497 
Q 3669 778 3244 343 
Q 2819 -91 2113 -91 
Q 1303 -91 875 529 
Q 447 1150 447 2328 
Q 447 3434 972 4092 
Q 1497 4750 2381 4750 
Q 2619 4750 2861 4703 
Q 3103 4656 3366 4563 
z
" id="DejaVuSans-36" transform="scale(0.015625)"/>
       </defs>
       <use xlink:href="#DejaVuSans-36"/>
      </g>
     </g>
    </g>
    <g id="xtick_5">
     <g id="line2d_5">
      <g>
       <use style="stroke:#000000;stroke-width:0.8;" x="312.952826" xlink:href="#m1f5e8fce22" y="252"/>
      </g>
     </g>
     <g id="text_5">
      <!-- 8 -->
      <g transform="translate(309.771576 266.598437)scale(0.1 -0.1)">
       <defs>
        <path d="M 2034 2216 
Q 1584 2216 1326 1975 
Q 1069 1734 1069 1313 
Q 1069 891 1326 650 
Q 1584 409 2034 409 
Q 2484 409 2743 651 
Q 3003 894 3003 1313 
Q 3003 1734 2745 1975 
Q 2488 2216 2034 2216 
z
M 1403 2484 
Q 997 2584 770 2862 
Q 544 3141 544 3541 
Q 544 4100 942 4425 
Q 1341 4750 2034 4750 
Q 2731 4750 3128 4425 
Q 3525 4100 3525 3541 
Q 3525 3141 3298 2862 
Q 3072 2584 2669 2484 
Q 3125 2378 3379 2068 
Q 3634 1759 3634 1313 
Q 3634 634 3220 271 
Q 2806 -91 2034 -91 
Q 1263 -91 848 271 
Q 434 634 434 1313 
Q 434 1759 690 2068 
Q 947 2378 1403 2484 
z
M 1172 3481 
Q 1172 3119 1398 2916 
Q 1625 2713 2034 2713 
Q 2441 2713 2670 2916 
Q 2900 3119 2900 3481 
Q 2900 3844 2670 4047 
Q 2441 4250 2034 4250 
Q 1625 4250 1398 4047 
Q 1172 3844 1172 3481 
z
" id="DejaVuSans-38" transform="scale(0.015625)"/>
       </defs>
       <use xlink:href="#DejaVuSans-38"/>
      </g>
     </g>
    </g>
    <g id="xtick_6">
     <g id="line2d_6">
      <g>
       <use style="stroke:#000000;stroke-width:0.8;" x="373.886486" xlink:href="#m1f5e8fce22" y="252"/>
      </g>
     </g>
     <g id="text_6">
      <!-- 10 -->
      <g transform="translate(367.523986 266.598437)scale(0.1 -0.1)">
       <defs>
        <path d="M 794 531 
L 1825 531 
L 1825 4091 
L 703 3866 
L 703 4441 
L 1819 4666 
L 2450 4666 
L 2450 531 
L 3481 531 
L 3481 0 
L 794 0 
L 794 531 
z
" id="DejaVuSans-31" transform="scale(0.015625)"/>
       </defs>
       <use xlink:href="#DejaVuSans-31"/>
       <use x="63.623047" xlink:href="#DejaVuSans-30"/>
      </g>
     </g>
    </g>
   </g>
   <g id="matplotlib.axis_2">
    <g id="ytick_1">
     <g id="line2d_7">
      <defs>
       <path d="M 0 0 
L -3.5 0 
" id="mb338af81b0" style="stroke:#000000;stroke-width:0.8;"/>
      </defs>
      <g>
       <use style="stroke:#000000;stroke-width:0.8;" x="54" xlink:href="#mb338af81b0" y="239.754609"/>
      </g>
     </g>
     <g id="text_7">
      <!-- −1.0 -->
      <g transform="translate(22.717187 243.553827)scale(0.1 -0.1)">
       <defs>
        <path d="M 678 2272 
L 4684 2272 
L 4684 1741 
L 678 1741 
L 678 2272 
z
" id="DejaVuSans-2212" transform="scale(0.015625)"/>
        <path d="M 684 794 
L 1344 794 
L 1344 0 
L 684 0 
L 684 794 
z
" id="DejaVuSans-2e" transform="scale(0.015625)"/>
       </defs>
       <use xlink:href="#DejaVuSans-2212"/>
       <use x="83.789062" xlink:href="#DejaVuSans-31"/>
       <use x="147.412109" xlink:href="#DejaVuSans-2e"/>
       <use x="179.199219" xlink:href="#DejaVuSans-30"/>
      </g>
     </g>
    </g>
    <g id="ytick_2">
     <g id="line2d_8">
      <g>
       <use style="stroke:#000000;stroke-width:0.8;" x="54" xlink:href="#mb338af81b0" y="196.658078"/>
      </g>
     </g>
     <g id="text_8">
      <!-- −0.5 -->
      <g transform="translate(22.717187 200.457297)scale(0.1 -0.1)">
       <defs>
        <path d="M 691 4666 
L 3169 4666 
L 3169 4134 
L 1269 4134 
L 1269 2991 
Q 1406 3038 1543 3061 
Q 1681 3084 1819 3084 
Q 2600 3084 3056 2656 
Q 3513 2228 3513 1497 
Q 3513 744 3044 326 
Q 2575 -91 1722 -91 
Q 1428 -91 1123 -41 
Q 819 9 494 109 
L 494 744 
Q 775 591 1075 516 
Q 1375 441 1709 441 
Q 2250 441 2565 725 
Q 2881 1009 2881 1497 
Q 2881 1984 2565 2268 
Q 2250 2553 1709 2553 
Q 1456 2553 1204 2497 
Q 953 2441 691 2322 
L 691 4666 
z
" id="DejaVuSans-35" transform="scale(0.015625)"/>
       </defs>
       <use xlink:href="#DejaVuSans-2212"/>
       <use x="83.789062" xlink:href="#DejaVuSans-30"/>
       <use x="147.412109" xlink:href="#DejaVuSans-2e"/>
       <use x="179.199219" xlink:href="#DejaVuSans-35"/>
      </g>
     </g>
    </g>
    <g id="ytick_3">
     <g id="line2d_9">
      <g>
       <use style="stroke:#000000;stroke-width:0.8;" x="54" xlink:href="#mb338af81b0" y="153.561547"/>
      </g>
     </g>
     <g id="text_9">
      <!-- 0.0 -->
      <g transform="translate(31.096875 157.360766)scale(0.1 -0.1)">
       <use xlink:href="#DejaVuSans-30"/>
       <use x="63.623047" xlink:href="#DejaVuSans-2e"/>
       <use x="95.410156" xlink:href="#DejaVuSans-30"/>
      </g>
     </g>
    </g>
    <g id="ytick_4">
     <g id="line2d_10">
      <g>
       <use style="stroke:#000000;stroke-width:0.8;" x="54" xlink:href="#mb338af81b0" y="110.465016"/>
      </g>
     </g>
     <g id="text_10">
      <!-- 0.5 -->
      <g transform="translate(31.096875 114.264235)scale(0.1 -0.1)">
       <use xlink:href="#DejaVuSans-30"/>
       <use x="63.623047" xlink:href="#DejaVuSans-2e"/>
       <use x="95.410156" xlink:href="#DejaVuSans-35"/>
      </g>
     </g>
    </g>
    <g id="ytick_5">
     <g id="line2d_11">
      <g>
       <use style="stroke:#000000;stroke-width:0.8;" x="54" xlink:href="#mb338af81b0" y="67.368486"/>
      </g>
     </g>
     <g id="text_11">
      <!-- 1.0 -->
      <g transform="translate(31.096875 71.167704)scale(0.1 -0.1)">
       <use xlink:href="#DejaVuSans-31"/>
       <use x="63.623047" xlink:href="#DejaVuSans-2e"/>
       <use x="95.410156" xlink:href="#DejaVuSans-30"/>
      </g>
     </g>
    </g>
   </g>
   <g id="line2d_12">
    <path clip-path="url(#p41ba9f334d)" d="M 69.218182 132.83139 
L 69.52285 132.128089 
L 69.827518 130.71727 
L 70.436855 125.776179 
L 71.046192 118.270292 
L 73.483538 84.131689 
L 74.092875 79.142614 
L 74.702211 75.682042 
L 75.311548 73.417295 
L 75.920885 72.180829 
L 76.225553 71.942067 
L 76.530221 71.969728 
L 76.834889 72.279515 
L 77.139558 72.894428 
L 77.748894 75.11932 
L 78.358231 78.684021 
L 80.490909 93.367733 
L 81.404914 97.98624 
L 82.014251 103.254821 
L 82.623587 112.128483 
L 83.232924 124.93926 
L 84.451597 157.88952 
L 85.67027 189.236891 
L 86.584275 206.014669 
L 87.193612 213.658769 
L 87.802948 219.044035 
L 88.716953 224.714694 
L 89.935627 232.02211 
L 90.849631 237.459358 
L 91.458968 239.701995 
L 91.763636 240.228162 
L 92.068305 240.381337 
L 92.372973 240.220861 
L 92.98231 239.23632 
L 93.591646 237.617446 
L 94.200983 235.313931 
L 94.810319 232.085337 
L 95.419656 227.77853 
L 96.028993 222.262799 
L 96.638329 215.260931 
L 97.552334 201.418094 
L 100.294349 154.227415 
L 101.81769 133.208647 
L 102.731695 116.445085 
L 105.47371 59.903092 
L 106.083047 53.103585 
L 106.387715 51.110497 
L 106.692383 50.134534 
L 106.997052 50.218699 
L 107.30172 51.382436 
L 107.606388 53.616325 
L 108.215725 61.030987 
L 109.12973 77.48731 
L 110.653071 106.83259 
L 111.262408 115.673843 
L 111.871744 122.062857 
L 112.481081 126.450922 
L 113.395086 132.469369 
L 114.004423 138.838466 
L 114.613759 148.386682 
L 115.832432 173.780578 
L 116.746437 191.621345 
L 117.660442 205.097411 
L 119.183784 222.586894 
L 120.097789 232.018407 
L 120.707125 236.741861 
L 121.316462 239.476764 
L 121.62113 240.117092 
L 121.925799 240.384631 
L 122.535135 240.321372 
L 123.144472 240.211837 
L 123.753808 240.254221 
L 124.058477 240.104222 
L 124.363145 239.631908 
L 124.667813 238.67119 
L 124.972482 237.102186 
L 125.581818 232.031849 
L 127.714496 209.620087 
L 128.323833 204.725339 
L 128.93317 197.766624 
L 129.542506 186.559489 
L 130.151843 170.73375 
L 131.675184 126.643635 
L 132.284521 114.794855 
L 132.893857 107.785992 
L 133.503194 104.375536 
L 134.112531 102.718946 
L 134.721867 101.157773 
L 135.331204 98.527736 
L 135.940541 94.26357 
L 137.76855 78.652552 
L 138.073219 77.760207 
L 138.377887 77.81331 
L 138.682555 78.819682 
L 139.291892 83.230105 
L 140.815233 97.737281 
L 141.42457 101.196843 
L 142.947912 106.882297 
L 143.557248 111.444767 
L 144.166585 118.460921 
L 145.08059 132.826781 
L 150.259951 223.105381 
L 150.869287 230.508918 
L 151.478624 235.077464 
L 151.783292 236.33692 
L 152.087961 236.975804 
L 152.392629 237.043237 
L 152.697297 236.578251 
L 153.001966 235.611892 
L 153.611302 232.280391 
L 154.220639 227.303351 
L 155.439312 214.52561 
L 156.353317 205.485516 
L 157.267322 198.750341 
L 158.485995 190.52522 
L 159.095332 184.635345 
L 160.009337 172.63465 
L 161.532678 148.211256 
L 163.360688 118.794624 
L 164.274693 107.377479 
L 165.493366 95.73811 
L 166.712039 86.015188 
L 167.321376 82.527336 
L 167.930713 80.139692 
L 168.540049 78.626634 
L 168.844717 78.160395 
L 169.149386 77.920652 
L 169.454054 77.956272 
L 169.758722 78.321772 
L 170.063391 79.061033 
L 170.672727 81.735412 
L 171.282064 85.999473 
L 171.8914 91.897247 
L 172.500737 99.773884 
L 173.110074 110.072161 
L 174.024079 129.649073 
L 175.54742 163.098409 
L 176.461425 178.086555 
L 177.37543 189.131468 
L 177.984767 194.501461 
L 178.594103 198.273306 
L 179.20344 200.800618 
L 179.812776 203.038108 
L 180.422113 206.271155 
L 181.03145 211.423902 
L 181.945455 222.261799 
L 182.859459 232.680097 
L 183.468796 236.879345 
L 183.773464 237.844999 
L 184.078133 238.041251 
L 184.382801 237.502127 
L 184.687469 236.295272 
L 185.296806 232.173607 
L 185.906143 226.2169 
L 186.820147 214.382513 
L 187.734152 199.353136 
L 189.257494 173.192727 
L 190.171499 161.87031 
L 191.390172 148.368132 
L 192.304177 134.062716 
L 194.741523 90.429069 
L 195.35086 84.202006 
L 195.960197 80.98859 
L 196.264865 80.347451 
L 196.569533 80.166449 
L 196.874201 80.286745 
L 197.788206 81.021625 
L 198.092875 81.095861 
L 198.702211 80.875663 
L 200.225553 79.788381 
L 200.530221 79.809981 
L 200.834889 80.041309 
L 201.139558 80.552277 
L 201.444226 81.414813 
L 202.053563 84.437478 
L 202.662899 89.359077 
L 203.576904 99.861243 
L 205.100246 121.603113 
L 206.623587 146.355415 
L 207.84226 170.577387 
L 209.67027 209.902735 
L 210.279607 217.754889 
L 210.584275 219.773283 
L 210.888943 220.557353 
L 211.193612 220.314428 
L 211.802948 218.104215 
L 212.412285 216.138913 
L 212.716953 215.978358 
L 213.021622 216.504839 
L 213.32629 217.652496 
L 214.849631 225.355027 
L 215.1543 226.043593 
L 215.458968 226.360504 
L 215.763636 226.388709 
L 216.068305 226.213745 
L 216.372973 225.879867 
L 216.677641 225.361579 
L 216.98231 224.560561 
L 217.286978 223.320827 
L 217.591646 221.453335 
L 218.200983 215.176221 
L 218.810319 205.058899 
L 219.724324 184.388744 
L 221.247666 148.862285 
L 222.161671 132.117883 
L 223.075676 119.015933 
L 223.989681 109.020653 
L 224.903686 101.277249 
L 225.81769 95.040873 
L 226.731695 90.336355 
L 227.6457 86.304881 
L 228.255037 82.337334 
L 228.864373 76.210883 
L 230.387715 58.439955 
L 230.692383 57.112268 
L 230.997052 57.221763 
L 231.30172 58.843869 
L 231.606388 61.903478 
L 232.215725 71.41618 
L 234.95774 121.756745 
L 236.176413 144.243707 
L 238.309091 184.883114 
L 239.527764 203.384333 
L 240.746437 219.00035 
L 241.660442 228.058577 
L 242.269779 232.409862 
L 242.879115 235.442475 
L 243.488452 237.168665 
L 243.79312 237.5052 
L 244.097789 237.472576 
L 244.402457 237.070832 
L 244.707125 236.326358 
L 245.316462 234.001846 
L 247.144472 224.857986 
L 248.058477 220.097858 
L 248.667813 216.078443 
L 249.27715 210.738737 
L 249.886486 203.710774 
L 250.495823 194.711686 
L 251.10516 183.264334 
L 252.019165 160.371659 
L 254.151843 98.236016 
L 254.761179 87.320312 
L 255.370516 80.162302 
L 256.284521 73.071599 
L 257.198526 67.41514 
L 257.807862 64.674687 
L 258.112531 63.905578 
L 258.417199 63.672253 
L 258.721867 64.048138 
L 259.026536 65.071718 
L 259.635872 68.97643 
L 260.549877 77.862293 
L 261.463882 86.287517 
L 262.073219 89.989186 
L 263.291892 95.500511 
L 263.901229 100.841121 
L 264.510565 109.843888 
L 265.42457 129.737805 
L 266.947912 165.950769 
L 267.861916 182.253298 
L 268.775921 194.400408 
L 269.385258 200.528975 
L 269.994595 205.042465 
L 270.9086 209.639568 
L 271.517936 212.728045 
L 272.127273 216.972007 
L 273.955283 232.196531 
L 274.259951 233.499049 
L 274.564619 234.189556 
L 274.869287 234.287246 
L 275.173956 233.833017 
L 275.478624 232.88412 
L 276.087961 229.662407 
L 276.697297 224.863014 
L 277.611302 215.481049 
L 278.829975 203.176382 
L 279.439312 198.950436 
L 280.048649 196.214544 
L 280.962654 192.987085 
L 281.267322 191.375207 
L 281.876658 186.06073 
L 282.485995 177.042041 
L 283.095332 164.317546 
L 285.837346 99.425182 
L 286.751351 85.76633 
L 287.665356 76.032731 
L 288.274693 71.256672 
L 288.884029 67.858827 
L 289.493366 65.828805 
L 289.798034 65.271945 
L 290.102703 64.984603 
L 290.407371 64.952177 
L 290.712039 65.178759 
L 291.016708 65.692845 
L 291.321376 66.533182 
L 291.930713 69.333588 
L 292.540049 73.660759 
L 293.454054 82.256571 
L 294.672727 95.981973 
L 295.586732 108.854231 
L 296.500737 124.901661 
L 298.328747 162.435101 
L 300.766093 213.508832 
L 301.37543 222.441807 
L 301.984767 228.31811 
L 302.594103 231.569329 
L 303.508108 234.213596 
L 304.117445 236.172758 
L 305.640786 241.693305 
L 305.945455 242.116364 
L 306.250123 242.095842 
L 306.554791 241.580311 
L 306.859459 240.533892 
L 307.468796 236.782849 
L 308.078133 230.811094 
L 308.992138 218.29959 
L 310.210811 197.850043 
L 311.429484 173.901904 
L 314.171499 113.613196 
L 314.780835 106.623333 
L 315.390172 102.189894 
L 316.304177 96.768849 
L 316.913514 91.767446 
L 317.52285 84.862355 
L 319.046192 62.93041 
L 319.960197 51.694042 
L 320.569533 46.732689 
L 320.874201 45.223321 
L 321.17887 44.443636 
L 321.483538 44.448862 
L 321.788206 45.28166 
L 322.092875 46.961021 
L 322.702211 52.792495 
L 323.311548 61.449613 
L 324.530221 83.469671 
L 326.358231 116.663732 
L 327.576904 134.765798 
L 328.795577 152.816603 
L 329.709582 170.944167 
L 331.84226 217.960993 
L 332.451597 226.583039 
L 333.060934 232.498365 
L 333.67027 236.403605 
L 334.279607 238.889463 
L 334.888943 240.260315 
L 335.193612 240.581825 
L 335.49828 240.698407 
L 335.802948 240.64514 
L 336.412285 240.164315 
L 337.021622 239.303834 
L 337.630958 237.900013 
L 338.240295 235.441111 
L 338.849631 231.218405 
L 339.458968 224.595603 
L 340.068305 215.36665 
L 341.286978 191.822579 
L 342.505651 169.832399 
L 343.724324 153.097761 
L 345.247666 132.325176 
L 347.989681 93.780263 
L 348.903686 84.181147 
L 349.513022 80.179249 
L 349.81769 79.019384 
L 350.122359 78.412451 
L 350.427027 78.3261 
L 350.731695 78.713682 
L 351.036364 79.522317 
L 351.6457 82.214396 
L 352.255037 86.142168 
L 353.169042 94.224381 
L 355.30172 116.616118 
L 355.911057 120.455274 
L 357.12973 126.725828 
L 357.739066 132.434621 
L 358.348403 141.2493 
L 359.262408 158.889206 
L 360.481081 182.556654 
L 362.004423 206.693928 
L 363.527764 229.272919 
L 364.137101 235.614947 
L 364.746437 239.221641 
L 365.051106 239.980221 
L 365.355774 240.122373 
L 365.660442 239.739929 
L 366.269779 237.880916 
L 368.097789 230.05375 
L 368.707125 226.972788 
L 369.316462 222.623559 
L 369.925799 216.079529 
L 370.535135 206.70911 
L 371.44914 188.181626 
L 372.363145 169.454916 
L 372.972482 160.604245 
L 373.27715 157.919292 
L 373.581818 156.552233 
L 373.581818 156.552233 
" style="fill:none;stroke:#1f77b4;stroke-linecap:square;stroke-width:1.5;"/>
   </g>
   <g id="line2d_13">
    <path clip-path="url(#p41ba9f334d)" d="M 69.218182 153.561547 
L 71.655528 112.037723 
L 72.874201 94.558336 
L 73.788206 83.829895 
L 74.702211 75.571733 
L 75.311548 71.587074 
L 75.920885 68.895202 
L 76.225553 68.048144 
L 76.530221 67.538568 
L 76.834889 67.368486 
L 77.139558 67.538568 
L 77.444226 68.048144 
L 77.748894 68.895202 
L 78.358231 71.587074 
L 78.967568 75.571733 
L 79.881572 83.829895 
L 80.795577 94.558336 
L 82.014251 112.037723 
L 83.537592 137.410578 
L 87.193612 199.746099 
L 88.412285 216.393585 
L 89.32629 226.336756 
L 90.240295 233.701829 
L 90.849631 237.046695 
L 91.458968 239.07495 
L 91.763636 239.584526 
L 92.068305 239.754609 
L 92.372973 239.584526 
L 92.677641 239.07495 
L 92.98231 238.227892 
L 93.591646 235.53602 
L 94.200983 231.551361 
L 95.114988 223.293199 
L 96.028993 212.564758 
L 97.247666 195.085371 
L 98.771007 169.712516 
L 102.427027 107.376995 
L 103.6457 90.729509 
L 104.559705 80.786338 
L 105.47371 73.421265 
L 106.083047 70.076399 
L 106.692383 68.048144 
L 106.997052 67.538568 
L 107.30172 67.368486 
L 107.606388 67.538568 
L 107.911057 68.048144 
L 108.215725 68.895202 
L 108.825061 71.587074 
L 109.434398 75.571733 
L 110.348403 83.829895 
L 111.262408 94.558336 
L 112.481081 112.037723 
L 114.004423 137.410578 
L 117.660442 199.746099 
L 118.879115 216.393585 
L 119.79312 226.336756 
L 120.707125 233.701829 
L 121.316462 237.046695 
L 121.925799 239.07495 
L 122.230467 239.584526 
L 122.535135 239.754609 
L 122.839803 239.584526 
L 123.144472 239.07495 
L 123.44914 238.227892 
L 124.058477 235.53602 
L 124.667813 231.551361 
L 125.581818 223.293199 
L 126.495823 212.564758 
L 127.714496 195.085371 
L 129.237838 169.712516 
L 132.893857 107.376995 
L 134.112531 90.729509 
L 135.026536 80.786338 
L 135.940541 73.421265 
L 136.549877 70.076399 
L 137.159214 68.048144 
L 137.463882 67.538568 
L 137.76855 67.368486 
L 138.073219 67.538568 
L 138.377887 68.048144 
L 138.682555 68.895202 
L 139.291892 71.587074 
L 139.901229 75.571733 
L 140.815233 83.829895 
L 141.729238 94.558336 
L 142.947912 112.037723 
L 144.471253 137.410578 
L 148.127273 199.746099 
L 149.345946 216.393585 
L 150.259951 226.336756 
L 151.173956 233.701829 
L 151.783292 237.046695 
L 152.392629 239.07495 
L 152.697297 239.584526 
L 153.001966 239.754609 
L 153.306634 239.584526 
L 153.611302 239.07495 
L 153.915971 238.227892 
L 154.525307 235.53602 
L 155.134644 231.551361 
L 156.048649 223.293199 
L 156.962654 212.564758 
L 158.181327 195.085371 
L 159.704668 169.712516 
L 163.360688 107.376995 
L 164.579361 90.729509 
L 165.493366 80.786338 
L 166.407371 73.421265 
L 167.016708 70.076399 
L 167.626044 68.048144 
L 167.930713 67.538568 
L 168.235381 67.368486 
L 168.540049 67.538568 
L 168.844717 68.048144 
L 169.149386 68.895202 
L 169.758722 71.587074 
L 170.368059 75.571733 
L 171.282064 83.829895 
L 172.196069 94.558336 
L 173.414742 112.037723 
L 174.938084 137.410578 
L 178.594103 199.746099 
L 179.812776 216.393585 
L 180.726781 226.336756 
L 181.640786 233.701829 
L 182.250123 237.046695 
L 182.859459 239.07495 
L 183.164128 239.584526 
L 183.468796 239.754609 
L 183.773464 239.584526 
L 184.078133 239.07495 
L 184.382801 238.227892 
L 184.992138 235.53602 
L 185.601474 231.551361 
L 186.515479 223.293199 
L 187.429484 212.564758 
L 188.648157 195.085371 
L 190.171499 169.712516 
L 193.827518 107.376995 
L 195.046192 90.729509 
L 195.960197 80.786338 
L 196.874201 73.421265 
L 197.483538 70.076399 
L 198.092875 68.048144 
L 198.397543 67.538568 
L 198.702211 67.368486 
L 199.00688 67.538568 
L 199.311548 68.048144 
L 199.616216 68.895202 
L 200.225553 71.587074 
L 200.834889 75.571733 
L 201.748894 83.829895 
L 202.662899 94.558336 
L 203.881572 112.037723 
L 205.404914 137.410578 
L 209.060934 199.746099 
L 210.279607 216.393585 
L 211.193612 226.336756 
L 212.107617 233.701829 
L 212.716953 237.046695 
L 213.32629 239.07495 
L 213.630958 239.584526 
L 213.935627 239.754609 
L 214.240295 239.584526 
L 214.544963 239.07495 
L 214.849631 238.227892 
L 215.458968 235.53602 
L 216.068305 231.551361 
L 216.98231 223.293199 
L 217.896314 212.564758 
L 219.114988 195.085371 
L 220.638329 169.712516 
L 224.294349 107.376995 
L 225.513022 90.729509 
L 226.427027 80.786338 
L 227.341032 73.421265 
L 227.950369 70.076399 
L 228.559705 68.048144 
L 228.864373 67.538568 
L 229.169042 67.368486 
L 229.47371 67.538568 
L 229.778378 68.048144 
L 230.083047 68.895202 
L 230.692383 71.587074 
L 231.30172 75.571733 
L 232.215725 83.829895 
L 233.12973 94.558336 
L 234.348403 112.037723 
L 235.871744 137.410578 
L 239.527764 199.746099 
L 240.746437 216.393585 
L 241.660442 226.336756 
L 242.574447 233.701829 
L 243.183784 237.046695 
L 243.79312 239.07495 
L 244.097789 239.584526 
L 244.402457 239.754609 
L 244.707125 239.584526 
L 245.011794 239.07495 
L 245.316462 238.227892 
L 245.925799 235.53602 
L 246.535135 231.551361 
L 247.44914 223.293199 
L 248.363145 212.564758 
L 249.581818 195.085371 
L 251.10516 169.712516 
L 254.761179 107.376995 
L 255.979853 90.729509 
L 256.893857 80.786338 
L 257.807862 73.421265 
L 258.417199 70.076399 
L 259.026536 68.048144 
L 259.331204 67.538568 
L 259.635872 67.368486 
L 259.940541 67.538568 
L 260.245209 68.048144 
L 260.549877 68.895202 
L 261.159214 71.587074 
L 261.76855 75.571733 
L 262.682555 83.829895 
L 263.59656 94.558336 
L 264.815233 112.037723 
L 266.338575 137.410578 
L 269.994595 199.746099 
L 271.213268 216.393585 
L 272.127273 226.336756 
L 273.041278 233.701829 
L 273.650614 237.046695 
L 274.259951 239.07495 
L 274.564619 239.584526 
L 274.869287 239.754609 
L 275.173956 239.584526 
L 275.478624 239.07495 
L 275.783292 238.227892 
L 276.392629 235.53602 
L 277.001966 231.551361 
L 277.915971 223.293199 
L 278.829975 212.564758 
L 280.048649 195.085371 
L 281.57199 169.712516 
L 285.22801 107.376995 
L 286.446683 90.729509 
L 287.360688 80.786338 
L 288.274693 73.421265 
L 288.884029 70.076399 
L 289.493366 68.048144 
L 289.798034 67.538568 
L 290.102703 67.368486 
L 290.407371 67.538568 
L 290.712039 68.048144 
L 291.016708 68.895202 
L 291.626044 71.587074 
L 292.235381 75.571733 
L 293.149386 83.829895 
L 294.063391 94.558336 
L 295.282064 112.037723 
L 296.805405 137.410578 
L 300.461425 199.746099 
L 301.680098 216.393585 
L 302.594103 226.336756 
L 303.508108 233.701829 
L 304.117445 237.046695 
L 304.726781 239.07495 
L 305.03145 239.584526 
L 305.336118 239.754609 
L 305.640786 239.584526 
L 305.945455 239.07495 
L 306.250123 238.227892 
L 306.859459 235.53602 
L 307.468796 231.551361 
L 308.382801 223.293199 
L 309.296806 212.564758 
L 310.515479 195.085371 
L 312.038821 169.712516 
L 315.69484 107.376995 
L 316.913514 90.729509 
L 317.827518 80.786338 
L 318.741523 73.421265 
L 319.35086 70.076399 
L 319.960197 68.048144 
L 320.264865 67.538568 
L 320.569533 67.368486 
L 320.874201 67.538568 
L 321.17887 68.048144 
L 321.483538 68.895202 
L 322.092875 71.587074 
L 322.702211 75.571733 
L 323.616216 83.829895 
L 324.530221 94.558336 
L 325.748894 112.037723 
L 327.272236 137.410578 
L 330.928256 199.746099 
L 332.146929 216.393585 
L 333.060934 226.336756 
L 333.974939 233.701829 
L 334.584275 237.046695 
L 335.193612 239.07495 
L 335.49828 239.584526 
L 335.802948 239.754609 
L 336.107617 239.584526 
L 336.412285 239.07495 
L 336.716953 238.227892 
L 337.32629 235.53602 
L 337.935627 231.551361 
L 338.849631 223.293199 
L 339.763636 212.564758 
L 340.98231 195.085371 
L 342.505651 169.712516 
L 346.161671 107.376995 
L 347.380344 90.729509 
L 348.294349 80.786338 
L 349.208354 73.421265 
L 349.81769 70.076399 
L 350.427027 68.048144 
L 350.731695 67.538568 
L 351.036364 67.368486 
L 351.341032 67.538568 
L 351.6457 68.048144 
L 351.950369 68.895202 
L 352.559705 71.587074 
L 353.169042 75.571733 
L 354.083047 83.829895 
L 354.997052 94.558336 
L 356.215725 112.037723 
L 357.739066 137.410578 
L 361.395086 199.746099 
L 362.613759 216.393585 
L 363.527764 226.336756 
L 364.441769 233.701829 
L 365.051106 237.046695 
L 365.660442 239.07495 
L 365.965111 239.584526 
L 366.269779 239.754609 
L 366.574447 239.584526 
L 366.879115 239.07495 
L 367.183784 238.227892 
L 367.79312 235.53602 
L 368.402457 231.551361 
L 369.316462 223.293199 
L 370.230467 212.564758 
L 371.44914 195.085371 
L 372.972482 169.712516 
L 373.581818 158.973654 
L 373.581818 158.973654 
" style="fill:none;stroke:#ff7f0e;stroke-linecap:square;stroke-width:1.5;"/>
   </g>
   <g id="patch_3">
    <path d="M 54 252 
L 54 34.56 
" style="fill:none;stroke:#000000;stroke-linecap:square;stroke-linejoin:miter;stroke-width:0.8;"/>
   </g>
   <g id="patch_4">
    <path d="M 388.8 252 
L 388.8 34.56 
" style="fill:none;stroke:#000000;stroke-linecap:square;stroke-linejoin:miter;stroke-width:0.8;"/>
   </g>
   <g id="patch_5">
    <path d="M 54 252 
L 388.8 252 
" style="fill:none;stroke:#000000;stroke-linecap:square;stroke-linejoin:miter;stroke-width:0.8;"/>
   </g>
   <g id="patch_6">
    <path d="M 54 34.56 
L 388.8 34.56 
" style="fill:none;stroke:#000000;stroke-linecap:square;stroke-linejoin:miter;stroke-width:0.8;"/>
   </g>
   <g id="legend_1">
    <g id="patch_7">
     <path d="M 314.2625 71.91625 
L 381.8 71.91625 
Q 383.8 71.91625 383.8 69.91625 
L 383.8 41.56 
Q 383.8 39.56 381.8 39.56 
L 314.2625 39.56 
Q 312.2625 39.56 312.2625 41.56 
L 312.2625 69.91625 
Q 312.2625 71.91625 314.2625 71.91625 
z
" style="fill:#ffffff;opacity:0.8;stroke:#cccccc;stroke-linejoin:miter;"/>
    </g>
    <g id="line2d_14">
     <path d="M 316.2625 47.658437 
L 336.2625 47.658437 
" style="fill:none;stroke:#1f77b4;stroke-linecap:square;stroke-width:1.5;"/>
    </g>
    <g id="line2d_15"/>
    <g id="text_12">
     <!-- filtered -->
     <g transform="translate(344.2625 51.158437)scale(0.1 -0.1)">
      <defs>
       <path d="M 2375 4863 
L 2375 4384 
L 1825 4384 
Q 1516 4384 1395 4259 
Q 1275 4134 1275 3809 
L 1275 3500 
L 2222 3500 
L 2222 3053 
L 1275 3053 
L 1275 0 
L 697 0 
L 697 3053 
L 147 3053 
L 147 3500 
L 697 3500 
L 697 3744 
Q 697 4328 969 4595 
Q 1241 4863 1831 4863 
L 2375 4863 
z
" id="DejaVuSans-66" transform="scale(0.015625)"/>
       <path d="M 603 3500 
L 1178 3500 
L 1178 0 
L 603 0 
L 603 3500 
z
M 603 4863 
L 1178 4863 
L 1178 4134 
L 603 4134 
L 603 4863 
z
" id="DejaVuSans-69" transform="scale(0.015625)"/>
       <path d="M 603 4863 
L 1178 4863 
L 1178 0 
L 603 0 
L 603 4863 
z
" id="DejaVuSans-6c" transform="scale(0.015625)"/>
       <path d="M 1172 4494 
L 1172 3500 
L 2356 3500 
L 2356 3053 
L 1172 3053 
L 1172 1153 
Q 1172 725 1289 603 
Q 1406 481 1766 481 
L 2356 481 
L 2356 0 
L 1766 0 
Q 1100 0 847 248 
Q 594 497 594 1153 
L 594 3053 
L 172 3053 
L 172 3500 
L 594 3500 
L 594 4494 
L 1172 4494 
z
" id="DejaVuSans-74" transform="scale(0.015625)"/>
       <path d="M 3597 1894 
L 3597 1613 
L 953 1613 
Q 991 1019 1311 708 
Q 1631 397 2203 397 
Q 2534 397 2845 478 
Q 3156 559 3463 722 
L 3463 178 
Q 3153 47 2828 -22 
Q 2503 -91 2169 -91 
Q 1331 -91 842 396 
Q 353 884 353 1716 
Q 353 2575 817 3079 
Q 1281 3584 2069 3584 
Q 2775 3584 3186 3129 
Q 3597 2675 3597 1894 
z
M 3022 2063 
Q 3016 2534 2758 2815 
Q 2500 3097 2075 3097 
Q 1594 3097 1305 2825 
Q 1016 2553 972 2059 
L 3022 2063 
z
" id="DejaVuSans-65" transform="scale(0.015625)"/>
       <path d="M 2631 2963 
Q 2534 3019 2420 3045 
Q 2306 3072 2169 3072 
Q 1681 3072 1420 2755 
Q 1159 2438 1159 1844 
L 1159 0 
L 581 0 
L 581 3500 
L 1159 3500 
L 1159 2956 
Q 1341 3275 1631 3429 
Q 1922 3584 2338 3584 
Q 2397 3584 2469 3576 
Q 2541 3569 2628 3553 
L 2631 2963 
z
" id="DejaVuSans-72" transform="scale(0.015625)"/>
       <path d="M 2906 2969 
L 2906 4863 
L 3481 4863 
L 3481 0 
L 2906 0 
L 2906 525 
Q 2725 213 2448 61 
Q 2172 -91 1784 -91 
Q 1150 -91 751 415 
Q 353 922 353 1747 
Q 353 2572 751 3078 
Q 1150 3584 1784 3584 
Q 2172 3584 2448 3432 
Q 2725 3281 2906 2969 
z
M 947 1747 
Q 947 1113 1208 752 
Q 1469 391 1925 391 
Q 2381 391 2643 752 
Q 2906 1113 2906 1747 
Q 2906 2381 2643 2742 
Q 2381 3103 1925 3103 
Q 1469 3103 1208 2742 
Q 947 2381 947 1747 
z
" id="DejaVuSans-64" transform="scale(0.015625)"/>
      </defs>
      <use xlink:href="#DejaVuSans-66"/>
      <use x="35.205078" xlink:href="#DejaVuSans-69"/>
      <use x="62.988281" xlink:href="#DejaVuSans-6c"/>
      <use x="90.771484" xlink:href="#DejaVuSans-74"/>
      <use x="129.980469" xlink:href="#DejaVuSans-65"/>
      <use x="191.503906" xlink:href="#DejaVuSans-72"/>
      <use x="230.367188" xlink:href="#DejaVuSans-65"/>
      <use x="291.890625" xlink:href="#DejaVuSans-64"/>
     </g>
    </g>
    <g id="line2d_16">
     <path d="M 316.2625 62.336562 
L 336.2625 62.336562 
" style="fill:none;stroke:#ff7f0e;stroke-linecap:square;stroke-width:1.5;"/>
    </g>
    <g id="line2d_17"/>
    <g id="text_13">
     <!-- signal -->
     <g transform="translate(344.2625 65.836562)scale(0.1 -0.1)">
      <defs>
       <path d="M 2834 3397 
L 2834 2853 
Q 2591 2978 2328 3040 
Q 2066 3103 1784 3103 
Q 1356 3103 1142 2972 
Q 928 2841 928 2578 
Q 928 2378 1081 2264 
Q 1234 2150 1697 2047 
L 1894 2003 
Q 2506 1872 2764 1633 
Q 3022 1394 3022 966 
Q 3022 478 2636 193 
Q 2250 -91 1575 -91 
Q 1294 -91 989 -36 
Q 684 19 347 128 
L 347 722 
Q 666 556 975 473 
Q 1284 391 1588 391 
Q 1994 391 2212 530 
Q 2431 669 2431 922 
Q 2431 1156 2273 1281 
Q 2116 1406 1581 1522 
L 1381 1569 
Q 847 1681 609 1914 
Q 372 2147 372 2553 
Q 372 3047 722 3315 
Q 1072 3584 1716 3584 
Q 2034 3584 2315 3537 
Q 2597 3491 2834 3397 
z
" id="DejaVuSans-73" transform="scale(0.015625)"/>
       <path d="M 2906 1791 
Q 2906 2416 2648 2759 
Q 2391 3103 1925 3103 
Q 1463 3103 1205 2759 
Q 947 2416 947 1791 
Q 947 1169 1205 825 
Q 1463 481 1925 481 
Q 2391 481 2648 825 
Q 2906 1169 2906 1791 
z
M 3481 434 
Q 3481 -459 3084 -895 
Q 2688 -1331 1869 -1331 
Q 1566 -1331 1297 -1286 
Q 1028 -1241 775 -1147 
L 775 -588 
Q 1028 -725 1275 -790 
Q 1522 -856 1778 -856 
Q 2344 -856 2625 -561 
Q 2906 -266 2906 331 
L 2906 616 
Q 2728 306 2450 153 
Q 2172 0 1784 0 
Q 1141 0 747 490 
Q 353 981 353 1791 
Q 353 2603 747 3093 
Q 1141 3584 1784 3584 
Q 2172 3584 2450 3431 
Q 2728 3278 2906 2969 
L 2906 3500 
L 3481 3500 
L 3481 434 
z
" id="DejaVuSans-67" transform="scale(0.015625)"/>
       <path d="M 3513 2113 
L 3513 0 
L 2938 0 
L 2938 2094 
Q 2938 2591 2744 2837 
Q 2550 3084 2163 3084 
Q 1697 3084 1428 2787 
Q 1159 2491 1159 1978 
L 1159 0 
L 581 0 
L 581 3500 
L 1159 3500 
L 1159 2956 
Q 1366 3272 1645 3428 
Q 1925 3584 2291 3584 
Q 2894 3584 3203 3211 
Q 3513 2838 3513 2113 
z
" id="DejaVuSans-6e" transform="scale(0.015625)"/>
       <path d="M 2194 1759 
Q 1497 1759 1228 1600 
Q 959 1441 959 1056 
Q 959 750 1161 570 
Q 1363 391 1709 391 
Q 2188 391 2477 730 
Q 2766 1069 2766 1631 
L 2766 1759 
L 2194 1759 
z
M 3341 1997 
L 3341 0 
L 2766 0 
L 2766 531 
Q 2569 213 2275 61 
Q 1981 -91 1556 -91 
Q 1019 -91 701 211 
Q 384 513 384 1019 
Q 384 1609 779 1909 
Q 1175 2209 1959 2209 
L 2766 2209 
L 2766 2266 
Q 2766 2663 2505 2880 
Q 2244 3097 1772 3097 
Q 1472 3097 1187 3025 
Q 903 2953 641 2809 
L 641 3341 
Q 956 3463 1253 3523 
Q 1550 3584 1831 3584 
Q 2591 3584 2966 3190 
Q 3341 2797 3341 1997 
z
" id="DejaVuSans-61" transform="scale(0.015625)"/>
      </defs>
      <use xlink:href="#DejaVuSans-73"/>
      <use x="52.099609" xlink:href="#DejaVuSans-69"/>
      <use x="79.882812" xlink:href="#DejaVuSans-67"/>
      <use x="143.359375" xlink:href="#DejaVuSans-6e"/>
      <use x="206.738281" xlink:href="#DejaVuSans-61"/>
      <use x="268.017578" xlink:href="#DejaVuSans-6c"/>
     </g>
    </g>
   </g>
  </g>
 </g>
 <defs>
  <clipPath id="p41ba9f334d">
   <rect height="217.44" width="334.8" x="54" y="34.56"/>
  </clipPath>
 </defs>
</svg>
