<?xml version="1.0" encoding="UTF-8" standalone="no"?>
<svg
   xmlns:dc="http://purl.org/dc/elements/1.1/"
   xmlns:cc="http://creativecommons.org/ns#"
   xmlns:rdf="http://www.w3.org/1999/02/22-rdf-syntax-ns#"
   xmlns:svg="http://www.w3.org/2000/svg"
   xmlns="http://www.w3.org/2000/svg"
   xmlns:sodipodi="http://sodipodi.sourceforge.net/DTD/sodipodi-0.dtd"
   xmlns:inkscape="http://www.inkscape.org/namespaces/inkscape"
   width="22.612726mm"
   height="22.999578mm"
   viewBox="0 0 22.612726 22.999578"
   version="1.1"
   id="svg8"
   inkscape:version="1.0.1 (3bc2e813f5, 2020-09-07)"
   sodipodi:docname="kanken.svg">
  <defs
     id="defs2" />
  <sodipodi:namedview
     id="base"
     pagecolor="#ffffff"
     bordercolor="#666666"
     borderopacity="1.0"
     inkscape:pageopacity="0.0"
     inkscape:pageshadow="2"
     inkscape:zoom="5.6"
     inkscape:cx="42.091523"
     inkscape:cy="62.063637"
     inkscape:document-units="mm"
     inkscape:current-layer="layer1"
     inkscape:document-rotation="0"
     showgrid="false"
     fit-margin-top="0"
     fit-margin-left="0"
     fit-margin-right="0"
     fit-margin-bottom="0"
     inkscape:window-width="1662"
     inkscape:window-height="1040"
     inkscape:window-x="2050"
     inkscape:window-y="0"
     inkscape:window-maximized="0" />
  <metadata
     id="metadata5">
    <rdf:RDF>
      <cc:Work
         rdf:about="">
        <dc:format>image/svg+xml</dc:format>
        <dc:type
           rdf:resource="http://purl.org/dc/dcmitype/StillImage" />
        <dc:title />
      </cc:Work>
    </rdf:RDF>
  </metadata>
  <g
     inkscape:label="レイヤー 1"
     inkscape:groupmode="layer"
     id="layer1"
     transform="translate(-103.77874,-73.188901)">
    <rect
       style="fill:#ffff3a;fill-opacity:1;stroke:#000000;stroke-width:2.30303;stroke-linecap:round;stroke-miterlimit:4;stroke-dasharray:none;stroke-opacity:1;paint-order:stroke fill markers"
       id="rect851"
       width="20.309696"
       height="20.696548"
       x="104.93026"
       y="74.340416" />
    <g
       aria-label="漢"
       id="text849"
       style="font-style:normal;font-weight:normal;font-size:19.7784px;line-height:1.25;font-family:sans-serif;fill:#000000;fill-opacity:1;stroke:none;stroke-width:0.49446">
      <path
         d="m 113.64129,78.260709 v 1.819613 h 0.63291 c 1.24604,0 1.87895,-0.395568 1.87895,-0.49446 v -1.325153 h 1.97784 v 1.740499 h 0.67246 c 1.2856,0 1.89873,-0.395568 1.89873,-0.514238 v -1.226261 h 3.16455 c 0.27689,0 0.47468,-0.09889 0.53401,-0.316454 -0.77136,-0.751579 -2.0174,-1.760278 -2.0174,-1.760278 l -1.14714,1.522937 h -0.53402 v -1.602051 c 0.4549,-0.07911 0.63291,-0.257119 0.65269,-0.534016 l -3.22388,-0.25712 v 2.393187 h -1.97784 v -1.621829 c 0.4549,-0.07911 0.61313,-0.257119 0.65269,-0.514238 l -3.16455,-0.25712 v 2.393187 h -2.82831 l 0.13845,0.553795 z m -7.12022,-2.630527 c 0.63291,0.810914 1.38449,2.037175 1.64161,3.164544 2.41296,1.542715 4.43036,-2.96676 -1.50316,-3.263436 z m -0.98892,4.371026 c 0.57357,0.791136 1.10759,1.97784 1.16692,3.085431 2.19541,1.720721 4.54904,-2.492079 -1.00869,-3.184323 z m 5.97307,-1.305374 c -3.81723,8.030031 -3.81723,8.030031 -4.31169,8.801388 -0.23734,0.415347 -0.33623,0.415347 -0.65268,0.415347 h -0.92959 v 0.356011 c 0.43513,0.03956 0.79114,0.138449 1.06804,0.336233 0.49446,0.336232 0.57357,2.294294 0.15822,4.410583 0.21756,0.791136 0.77136,1.048255 1.2856,1.048255 1.08781,0 1.87895,-0.731801 1.9185,-1.799834 0.0593,-1.799835 -0.87025,-2.412965 -0.9098,-3.579891 0,-0.514238 0.13845,-1.265817 0.31645,-1.958061 0.2769,-1.107591 1.58227,-5.537953 2.35363,-7.950917 z m 7.04112,7.258673 v -1.384488 h 1.81961 v 0.652687 h 0.49446 c 0.15823,0 0.33623,-0.01978 0.51424,-0.03956 l -0.96915,1.186704 h -1.85916 z m -4.41059,-1.938283 v -2.749198 h 1.68117 v 2.749198 z m 6.2302,-2.749198 v 2.749198 h -1.81961 v -2.749198 z m 3.3821,8.010252 c 0.29668,0 0.51424,-0.09889 0.5538,-0.316454 -0.90981,-0.791136 -2.41297,-1.938283 -2.41297,-1.938283 l -1.34493,1.700942 h -2.33385 c 0.17801,-0.573574 0.25712,-1.186704 0.31646,-1.799834 h 4.86548 c 0.2769,0 0.49446,-0.09889 0.53402,-0.316455 -0.61313,-0.514238 -1.52294,-1.186704 -1.97784,-1.542715 0.61313,-0.138449 1.14715,-0.356011 1.16693,-0.435125 v -3.026095 c 0.33623,-0.05933 0.53401,-0.217563 0.6329,-0.336233 l -2.41296,-1.780056 -1.14715,1.226261 h -5.93352 l -2.59097,-1.008699 v 6.071969 h 0.33623 c 1.0087,0 2.13607,-0.534017 2.13607,-0.751579 v -0.454903 h 1.68117 v 1.404266 0.395568 h -4.70726 l 0.15822,0.553796 h 4.52926 c -0.0396,0.632908 -0.13845,1.22626 -0.29668,1.799834 h -4.98416 l 0.15823,0.553795 h 4.64793 c -0.69225,1.780056 -2.25474,3.283215 -5.55773,4.549032 l 0.0989,0.197784 c 5.18194,-0.98892 7.29823,-2.709641 8.1487,-4.746816 h 0.178 c 0.75158,2.492079 2.05696,3.896345 4.50948,4.786373 0.21756,-1.424045 0.92958,-2.373408 1.9185,-2.689862 l 0.0198,-0.217563 c -2.33385,-0.07911 -4.6677,-0.712022 -5.93352,-1.878948 z"
         style="font-style:normal;font-variant:normal;font-weight:900;font-stretch:normal;font-family:'Noto Serif JP';-inkscape-font-specification:'Noto Serif JP Heavy';stroke-width:0.49446"
         id="path837" />
    </g>
  </g>
</svg>
