<?xml version="1.0" encoding="UTF-8" standalone="no"?>
<!-- Created with Inkscape (http://www.inkscape.org/) -->

<svg
   width="135.46666mm"
   height="135.46666mm"
   viewBox="0 0 135.46666 135.46666"
   version="1.1"
   id="svg1"
   inkscape:version="1.4.2 (f4327f4, 2025-05-13)"
   sodipodi:docname="akari.svg"
   xmlns:inkscape="http://www.inkscape.org/namespaces/inkscape"
   xmlns:sodipodi="http://sodipodi.sourceforge.net/DTD/sodipodi-0.dtd"
   xmlns:xlink="http://www.w3.org/1999/xlink"
   xmlns="http://www.w3.org/2000/svg"
   xmlns:svg="http://www.w3.org/2000/svg">
  <sodipodi:namedview
     id="namedview1"
     pagecolor="#ffffff"
     bordercolor="#000000"
     borderopacity="0.25"
     inkscape:showpageshadow="2"
     inkscape:pageopacity="0.0"
     inkscape:pagecheckerboard="0"
     inkscape:deskcolor="#d1d1d1"
     inkscape:document-units="mm"
     inkscape:zoom="0.50898197"
     inkscape:cx="-192.5412"
     inkscape:cy="326.14122"
     inkscape:window-width="1920"
     inkscape:window-height="1010"
     inkscape:window-x="-6"
     inkscape:window-y="-6"
     inkscape:window-maximized="1"
     inkscape:current-layer="layer1"
     showgrid="false"
     showguides="false" />
  <defs
     id="defs1">
    <linearGradient
       id="linearGradient2"
       inkscape:collect="always">
      <stop
         style="stop-color:#550000;stop-opacity:1"
         offset="0"
         id="stop2" />
      <stop
         style="stop-color:#ff5555;stop-opacity:1"
         offset="1"
         id="stop3" />
    </linearGradient>
    <linearGradient
       inkscape:collect="always"
       xlink:href="#linearGradient2"
       id="linearGradient3"
       x1="38.962872"
       y1="105.12624"
       x2="174.42953"
       y2="240.59291"
       gradientUnits="userSpaceOnUse" />
  </defs>
  <g
     inkscape:label="Layer 1"
     inkscape:groupmode="layer"
     id="layer1"
     transform="translate(-38.962872,-105.12624)">
    <path
       id="path1"
       style="fill:url(#linearGradient3);fill-opacity:1;stroke-width:0.11495"
       d="m 106.69621,105.12624 c -37.408088,0 -67.733338,30.32524 -67.733338,67.73333 -6e-6,37.40809 30.325246,67.73334 67.733338,67.73334 15.38939,-1e-5 30.32,-5.24067 42.33333,-14.85904 v 10.85928 c 0,2.216 1.78375,3.99976 3.99975,3.99976 h 17.40049 c 2.216,0 3.99976,-1.78376 3.99976,-3.99976 v -63.69895 -0.0346 -0.0346 -56.29062 c 0,-2.216 -1.78376,-3.99976 -3.99976,-3.99976 h -17.40049 c -2.216,0 -3.99975,1.78376 -3.99975,3.99976 v 3.45095 c -12.01333,-9.61837 -26.94394,-14.85903 -42.33333,-14.85904 z m 0,25.4 c 23.38005,0 42.33333,18.95328 42.33333,42.33333 0,23.38006 -18.95327,42.33334 -42.33333,42.33334 -23.380059,0 -42.333342,-18.95328 -42.333338,-42.33334 10e-7,-23.38006 18.953283,-42.33333 42.333338,-42.33333 z"
       sodipodi:nodetypes="csscsssscccssssccsssss" />
  </g>
</svg>
